<?xml version="1.0" encoding="UTF-8"?>
<svg width="211px" height="79px" viewBox="0 0 211 79" version="1.1" xmlns="http://www.w3.org/2000/svg" xmlns:xlink="http://www.w3.org/1999/xlink">
    <!-- Generator: Sketch 50.2 (55047) - http://www.bohemiancoding.com/sketch -->
    <title>reg-2</title>
    <desc>Created with Sketch.</desc>
    <defs></defs>
    <g id="Page-1" stroke="none" stroke-width="1" fill="none" fill-rule="evenodd">
        <g id="reg-2" fill-rule="nonzero">
            <rect id="Rectangle-path" fill="#F5AF00" x="0" y="0.35" width="211" height="78"></rect>
            <path d="M11.66,27.62 C11.6978559,28.3810419 11.4834283,29.1332961 11.05,29.76 C10.6729096,30.2869407 10.0576341,30.5908268 9.41,30.57 C8.78557983,30.598593 8.17962951,30.3540227 7.75,29.9 L7.75,32.69 L6.75,32.69 L6.75,24.69 L7.66,24.69 L7.66,25.33 C8.06494884,24.8219771 8.69142499,24.5423003 9.34,24.58 C9.98874652,24.5583509 10.607651,24.8528898 11,25.37 C11.4428059,26.0148702 11.6575011,26.789181 11.61,27.57 L11.66,27.62 Z M10.66,27.51 C10.6906157,26.958446 10.5433954,26.4116279 10.24,25.95 C9.97727907,25.5782703 9.54491568,25.3639684 9.09,25.38 C8.52275891,25.3616109 7.99626077,25.6736098 7.74,26.18 L7.74,28.96 C7.99779344,29.4697602 8.52919939,29.782352 9.1,29.76 C9.55141804,29.7726327 9.97925531,29.558714 10.24,29.19 C10.5548231,28.6921604 10.7052418,28.1079761 10.67,27.52 L10.66,27.51 Z" id="Shape" fill="#000000"></path>
            <path d="M16.51,30.47 C16.4345017,30.2743775 16.3873581,30.0689661 16.37,29.86 C15.947105,30.3232885 15.3472568,30.5850405 14.72,30.58 C14.204376,30.6047542 13.6991506,30.4291794 13.31,30.09 C12.9487348,29.7852913 12.7462265,29.3324089 12.76,28.86 C12.7336326,28.3029065 12.9939249,27.7710047 13.45,27.45 C14.0264814,27.079985 14.7064854,26.9047263 15.39,26.95 L16.39,26.95 L16.39,26.49 C16.3975082,26.1560948 16.2542674,25.8365575 16,25.62 C15.752494,25.3954298 15.423128,25.2832282 15.09,25.31 C14.768444,25.2983665 14.4520513,25.3932843 14.19,25.58 C13.9705563,25.724417 13.8359991,25.9673675 13.83,26.23 L12.83,26.23 C12.8350072,25.9246466 12.9404378,25.629441 13.13,25.39 C13.3505987,25.1082788 13.6398315,24.8879109 13.97,24.75 C14.3348373,24.5872913 14.7305511,24.5054195 15.13,24.51 C15.7000266,24.4783448 16.2619616,24.6561724 16.71,25.01 C17.0954162,25.3683276 17.3099862,25.8738398 17.3,26.4 L17.3,29.07 C17.2845501,29.5022453 17.3524522,29.9334236 17.5,30.34 L17.5,30.43 L16.51,30.47 Z M14.86,29.71 C15.1725939,29.7095364 15.4795536,29.6267607 15.75,29.47 C16.0123074,29.3264444 16.2249784,29.1068006 16.36,28.84 L16.36,27.62 L15.58,27.62 C14.36,27.62 13.75,27.98 13.75,28.69 C13.7347685,28.9681997 13.8492427,29.2377681 14.06,29.42 C14.284112,29.6080039 14.5674745,29.7107228 14.86,29.71 Z" id="Shape" fill="#000000"></path>
            <path d="M21.46,24.99 C22.1221422,24.9650247 22.7618877,25.23189 23.21,25.72 C23.6672308,26.2600396 23.9030374,26.9531682 23.87,27.66 L23.87,27.75 C23.8754657,28.257853 23.7660735,28.7603733 23.55,29.22 C23.3526806,29.6362903 23.0358915,29.9844102 22.64,30.22 C22.2291824,30.4646536 21.7580574,30.5893631 21.28,30.58 C20.5661911,30.6092237 19.8754329,30.3241489 19.39,29.8 C18.8939041,29.2163186 18.6398781,28.4649741 18.68,27.7 L18.68,27.21 C18.6280568,26.1965401 18.8601011,25.1887059 19.35,24.3 C19.7953636,23.5941717 20.5250133,23.1162511 21.35,22.99 C21.7016473,22.946191 22.0413456,22.8340905 22.35,22.66 C22.5178359,22.5362413 22.6148537,22.3384744 22.61,22.13 L23.43,22.13 C23.4499898,22.5051766 23.3405554,22.8758416 23.12,23.18 C22.8564879,23.4650519 22.503829,23.6519611 22.12,23.71 L21.38,23.87 C20.8748143,23.9660046 20.4108769,24.2136704 20.05,24.58 C19.734842,24.9546916 19.5366437,25.4136773 19.48,25.9 C19.961356,25.303695 20.694002,24.9669739 21.46,24.99 Z M21.26,25.81 C20.8194085,25.7910654 20.3935921,25.9709361 20.1,26.3 C19.79439,26.6850778 19.6413138,27.1692256 19.67,27.66 L19.67,27.75 C19.6441945,28.2790031 19.7993867,28.8010132 20.11,29.23 C20.4007082,29.5749928 20.8288556,29.7740994 21.28,29.7740994 C21.7311444,29.7740994 22.1592918,29.5749928 22.45,29.23 C22.7646499,28.7581325 22.9157154,28.1960282 22.88,27.63 C22.896048,27.1515194 22.7399268,26.6831557 22.44,26.31 C22.143845,25.9716252 21.7091049,25.7874133 21.26,25.81 Z" id="Shape" fill="#000000"></path>
            <path d="M24.72,27.51 C24.7153987,26.9775583 24.8316494,26.4510107 25.06,25.97 C25.2661585,25.5370991 25.5924584,25.1726151 26,24.92 C26.4122396,24.6690121 26.8874553,24.5406691 27.37,24.55 C28.1002623,24.5233209 28.804315,24.8240101 29.29,25.37 C29.7999328,25.9823049 30.0605633,26.7641964 30.02,27.56 L30.02,27.62 C30.0313289,28.1445041 29.9218384,28.6645837 29.7,29.14 C29.4965479,29.5715745 29.1738451,29.9359164 28.77,30.19 C28.3519418,30.4456046 27.8699511,30.5773719 27.38,30.57 C26.6534533,30.5922769 25.9542507,30.2920957 25.47,29.75 C24.9579904,29.1422337 24.6937734,28.3638648 24.73,27.57 L24.72,27.51 Z M25.72,27.63 C25.6929758,28.1823896 25.8513678,28.7279623 26.17,29.18 C26.4488993,29.5617251 26.8974017,29.7822388 27.37,29.77 C27.8460251,29.7871667 28.2981183,29.5611201 28.57,29.17 C28.8976178,28.6808215 29.0557014,28.0976687 29.02,27.51 C29.0454924,26.9577913 28.8872416,26.4127053 28.57,25.96 C28.2879322,25.576678 27.8357173,25.3561766 27.36,25.37 C26.8923386,25.3570321 26.4479077,25.5736455 26.17,25.95 C25.8416213,26.4425732 25.6835685,27.0291246 25.72,27.62 L25.72,27.63 Z" id="Shape" fill="#000000"></path>
            <polygon id="Shape" fill="#000000" points="35.46 25.46 33.51 25.46 33.51 30.46 32.51 30.46 32.51 25.46 30.6 25.46 30.6 24.62 35.46 24.62"></polygon>
            <path d="M37.51,26.62 L39,26.62 C39.5661797,26.5961182 40.1213853,26.7811867 40.56,27.14 C40.9498433,27.4859759 41.1629199,27.9892776 41.14,28.51 C41.1593456,29.0379292 40.9431904,29.547176 40.55,29.9 C40.1040857,30.2677685 39.5373926,30.4566662 38.96,30.43 L36.5,30.43 L36.5,24.62 L37.5,24.62 L37.51,26.62 Z M37.51,27.43 L37.51,29.62 L39,29.62 C39.313435,29.6385762 39.6218176,29.5345867 39.86,29.33 C40.0754885,29.1257456 40.1890699,28.8362963 40.17,28.54 C40.1802985,28.2470396 40.0721617,27.9622793 39.87,27.75 C39.6426035,27.537617 39.3410677,27.4227462 39.03,27.43 L37.51,27.43 Z M43.23,30.43 L42.23,30.43 L42.23,24.62 L43.23,24.62 L43.23,30.43 Z" id="Shape" fill="#000000"></path>
            <path d="M47.65,27.3 C47.6490531,26.5090295 47.7567255,25.7216752 47.97,24.96 C48.1927065,24.2435303 48.5304482,23.568047 48.97,22.96 C49.3186777,22.43862 49.7757438,21.9986085 50.31,21.67 L50.52,22.33 C49.928968,22.8130279 49.4826028,23.4497038 49.23,24.17 C48.8797628,25.0487242 48.6933567,25.9841438 48.68,26.93 L48.68,27.39 C48.6534676,28.632445 48.913526,29.8643008 49.44,30.99 C49.7017612,31.5361654 50.0727346,32.0228553 50.53,32.42 L50.32,33.02 C49.7698054,32.6879449 49.3042429,32.2326522 48.96,31.69 C48.071207,30.4014781 47.6126777,28.8648797 47.65,27.3 Z" id="Shape" fill="#000000"></path>
            <path d="M53.35,29.01 L54.7,24.62 L55.77,24.62 L53.43,31.33 C53.07,32.33 52.49,32.78 51.71,32.78 L51.52,32.78 L51.15,32.71 L51.15,31.91 L51.42,31.91 C51.695777,31.9253078 51.9691861,31.8516977 52.2,31.7 C52.4278015,31.5064568 52.5916579,31.2484701 52.67,30.96 L52.89,30.37 L50.81,24.62 L51.9,24.62 L53.35,29.01 Z" id="Shape" fill="#000000"></path>
            <path d="M58.92,29.77 C59.2593363,29.7738353 59.5889771,29.656866 59.85,29.44 C60.1017108,29.2462746 60.2611864,28.9563189 60.29,28.64 L61.23,28.64 C61.2133181,29.0003266 61.0916617,29.3479163 60.88,29.64 C60.6636654,29.945604 60.3750952,30.1929499 60.04,30.36 C59.6933015,30.5373847 59.3094421,30.6299223 58.92,30.63 C58.2043655,30.6580493 57.512801,30.3689827 57.03,29.84 C56.534742,29.2289877 56.2851465,28.4552418 56.33,27.67 L56.33,27.5 C56.3191547,26.9798214 56.4250866,26.4638307 56.64,25.99 C56.8358154,25.5790002 57.1444916,25.2321731 57.53,24.99 C57.9442133,24.7350498 58.4238015,24.6064646 58.91,24.62 C59.5083435,24.6037752 60.0906659,24.8145545 60.54,25.21 C60.9711364,25.5988368 61.2211033,26.1494886 61.23,26.73 L60.29,26.73 C60.2733868,26.3757971 60.1190917,26.0420891 59.86,25.8 C59.5905411,25.5472864 59.2287064,25.4170259 58.86,25.44 C58.4054158,25.4191517 57.9690602,25.6205465 57.69,25.98 C57.3810726,26.4466056 57.2335466,27.0015843 57.27,27.56 L57.27,27.75 C57.2349325,28.2957476 57.3827161,28.837621 57.69,29.29 C57.9896223,29.6516394 58.4546243,29.8331036 58.92,29.77 Z" id="Shape" fill="#000000"></path>
            <path d="M67.11,24.62 L67.11,30.43 L66.11,30.43 L66.11,25.43 L64.11,25.43 L64,27.62 C64.0018006,28.362485 63.8306099,29.0951811 63.5,29.76 C63.2200883,30.1920594 62.7345515,30.4462076 62.22,30.43 L61.82,30.43 L61.82,29.62 L62.1,29.62 C62.4247746,29.5912305 62.7006402,29.370538 62.8,29.06 C62.9793652,28.4531051 63.0670003,27.8228067 63.06,27.19 L63.17,24.71 L67.11,24.62 Z" id="Shape" fill="#000000"></path>
            <path d="M70.6,29.01 L72,24.62 L73,24.62 L70.67,31.33 C70.3,32.33 69.73,32.78 68.94,32.78 L68.75,32.78 L68.38,32.71 L68.38,31.91 L68.65,31.91 C68.9290634,31.9267662 69.2060974,31.8531243 69.44,31.7 C69.6676141,31.5080845 69.8286384,31.2490454 69.9,30.96 L70.12,30.37 L68.07,24.62 L69.15,24.62 L70.6,29.01 Z" id="Shape" fill="#000000"></path>
            <polygon id="Shape" fill="#000000" points="77.66 25.48 75 25.48 75 30.48 74 30.48 74 24.62 77.68 24.62"></polygon>
            <polygon id="Shape" fill="#000000" points="82.28 24.62 83.28 24.62 83.28 30.43 82.28 30.43 82.28 26.19 79.6 30.43 78.6 30.43 78.6 24.62 79.6 24.62 79.6 28.86"></polygon>
            <path d="M87.16,27.35 C87.1642335,28.1273591 87.0598926,28.9015013 86.85,29.65 C86.6288008,30.3670752 86.2909407,31.0427955 85.85,31.65 C85.5028859,32.1876481 85.0377679,32.6390861 84.49,32.97 L84.28,32.37 C84.902653,31.8417262 85.3636418,31.1485099 85.61,30.37 C85.9645515,29.4102748 86.1374929,28.3929727 86.12,27.37 L86.12,27.19 C86.1287052,26.4865678 86.0514668,25.7847052 85.89,25.1 C85.7467416,24.4937242 85.5248627,23.9087708 85.23,23.36 C84.9766485,22.8996115 84.6371549,22.4922191 84.23,22.16 L84.44,21.55 C84.9824429,21.8842855 85.4436107,22.3352051 85.79,22.87 C86.2346618,23.4749367 86.5728477,24.1513085 86.79,24.87 C87.0385145,25.6730904 87.1632781,26.5093437 87.16,27.35 Z" id="Shape" fill="#000000"></path>
            <path d="M88.66,32.03 L88.1,31.64 C88.4158213,31.2202891 88.5971133,30.7147633 88.62,30.19 L88.62,29.29 L89.62,29.29 L89.62,30.07 C89.6159682,30.4493836 89.5235201,30.8225998 89.35,31.16 C89.1856013,31.4964732 88.9501919,31.7932938 88.66,32.03 Z" id="Shape" fill="#000000"></path>
            <path d="M95.91,29.77 C96.2493363,29.7738353 96.5789771,29.656866 96.84,29.44 C97.0917108,29.2462746 97.2511864,28.9563189 97.28,28.64 L98.22,28.64 C98.2033181,29.0003266 98.0816617,29.3479163 97.87,29.64 C97.6536654,29.945604 97.3650952,30.1929499 97.03,30.36 C96.6833015,30.5373847 96.2994421,30.6299223 95.91,30.63 C95.1943655,30.6580493 94.502801,30.3689827 94.02,29.84 C93.524742,29.2289877 93.2751465,28.4552418 93.32,27.67 L93.32,27.5 C93.3091547,26.9798214 93.4150866,26.4638307 93.63,25.99 C93.8258154,25.5790002 94.1344916,25.2321731 94.52,24.99 C94.9342133,24.7350498 95.4138015,24.6064646 95.9,24.62 C96.498667,24.6017615 97.0817064,24.8128003 97.53,25.21 C97.9611364,25.5988368 98.2111033,26.1494886 98.22,26.73 L97.28,26.73 C97.2633868,26.3757971 97.1090917,26.0420891 96.85,25.8 C96.5928609,25.5599577 96.2516439,25.4306544 95.9,25.44 C95.4454158,25.4191517 95.0090602,25.6205465 94.73,25.98 C94.4210726,26.4466056 94.2735466,27.0015843 94.31,27.56 L94.31,27.75 C94.2749325,28.2957476 94.4227161,28.837621 94.73,29.29 C95.0205031,29.6342608 95.4616741,29.8137202 95.91,29.77 Z" id="Shape" fill="#000000"></path>
            <path d="M99.43,30.47 L99.43,24.62 L101.69,24.62 C102.309399,24.5800845 102.927229,24.7189226 103.47,25.02 C103.877903,25.2742092 104.115394,25.7300395 104.09,26.21 C104.091445,26.4729471 104.007195,26.7292085 103.85,26.94 C103.666991,27.1721638 103.420253,27.3459228 103.14,27.44 C103.464548,27.5049312 103.759289,27.6733547 103.98,27.92 C104.193606,28.1546573 104.308259,28.4627881 104.3,28.78 C104.326051,29.2638055 104.103627,29.7275035 103.71,30.01 C103.213835,30.3192865 102.633553,30.466105 102.05,30.43 L99.43,30.47 Z M100.43,27.12 L101.71,27.12 C102.64,27.12 103.11,26.85 103.11,26.31 C103.11,25.77 102.67,25.48 101.79,25.46 L100.43,25.46 L100.43,27.12 Z M100.43,27.92 L100.43,29.67 L102.07,29.67 C102.39651,29.6934623 102.722065,29.6129486 103,29.44 C103.205941,29.2891478 103.322391,29.0449798 103.31,28.79 C103.31,28.21 102.89,27.92 102.04,27.92 L100.43,27.92 Z" id="Shape" fill="#000000"></path>
            <path d="M110.06,24.62 L110.06,30.43 L109.06,30.43 L109.06,28.17 L107.56,28.17 L106.19,30.43 L105.12,30.43 L106.58,28.02 C106.236588,27.9010979 105.93692,27.6815739 105.72,27.39 C105.521122,27.0952025 105.419696,26.7454603 105.43,26.39 C105.41009,25.8934201 105.629502,25.4174073 106.02,25.11 C106.48046,24.7662354 107.046005,24.593037 107.62,24.62 L110.06,24.62 Z M106.42,26.4 C106.413228,26.6609481 106.518843,26.9122392 106.71,27.09 C106.926009,27.2683199 107.200108,27.3608727 107.48,27.35 L109.06,27.35 L109.06,25.42 L107.63,25.42 C107.312165,25.4015441 106.998731,25.5012729 106.75,25.7 C106.523414,25.8761496 106.399631,26.1537218 106.42,26.44 L106.42,26.4 Z" id="Shape" fill="#000000"></path>
            <path d="M114.85,26.25 C114.860594,25.9953844 114.744527,25.7520193 114.54,25.6 C114.291258,25.4276623 113.992144,25.3432065 113.69,25.36 C113.372639,25.3452325 113.060476,25.4445573 112.81,25.64 C112.593274,25.7810342 112.461807,26.0214321 112.46,26.28 L111.46,26.28 C111.454101,25.7883994 111.68948,25.3251135 112.09,25.04 C113.053226,24.4166065 114.287652,24.3971973 115.27,24.99 C115.652215,25.2889879 115.864887,25.755374 115.84,26.24 C115.842996,26.5001216 115.75847,26.7537003 115.6,26.96 C115.427757,27.1930902 115.19648,27.3760404 114.93,27.49 C115.541332,27.6458676 115.959045,28.2097793 115.93,28.84 C115.94843,29.3375508 115.715451,29.8110256 115.31,30.1 C114.831755,30.436663 114.253969,30.602248 113.67,30.57 C113.077514,30.5962891 112.493236,30.4238215 112.01,30.08 C111.583389,29.7742432 111.339129,29.2744511 111.36,28.75 L112.36,28.75 C112.364702,29.0395816 112.505491,29.310044 112.74,29.48 C113.30424,29.8518682 114.03576,29.8518682 114.6,29.48 C114.824473,29.3273884 114.956249,29.0713655 114.95,28.8 C114.978835,28.532508 114.869556,28.2687298 114.66,28.1 C114.384991,27.9393128 114.067613,27.8660716 113.75,27.89 L112.75,27.89 L112.75,27.05 L113.83,27.05 C114.51,27.07 114.85,26.79 114.85,26.25 Z" id="Shape" fill="#000000"></path>
            <path d="M120.83,30.47 C120.754502,30.2743775 120.707358,30.0689661 120.69,29.86 C120.265202,30.3486744 119.647467,30.6264724 119,30.62 C118.484376,30.6447542 117.979151,30.4691794 117.59,30.13 C117.228735,29.8252913 117.026226,29.3724089 117.04,28.9 C117.013633,28.3429065 117.273925,27.8110047 117.73,27.49 C118.306481,27.119985 118.986485,26.9447263 119.67,26.99 L120.67,26.99 L120.67,26.53 C120.68635,26.2222981 120.574058,25.9216459 120.36,25.7 C120.10881,25.4748942 119.7762,25.3628189 119.44,25.39 C119.121734,25.3798341 118.808972,25.474717 118.55,25.66 C118.330556,25.804417 118.195999,26.0473675 118.19,26.31 L117.19,26.31 C117.199325,26.003756 117.308147,25.7088826 117.5,25.47 C117.720599,25.1882788 118.009832,24.9679109 118.34,24.83 C118.704837,24.6672913 119.100551,24.5854195 119.5,24.59 C120.070027,24.5583448 120.631962,24.7361724 121.08,25.09 C121.465416,25.4483276 121.679986,25.9538398 121.67,26.48 L121.67,29.15 C121.65455,29.5822453 121.722452,30.0134236 121.87,30.42 L121.87,30.51 L120.83,30.47 Z M119.18,29.71 C119.492594,29.7095364 119.799554,29.6267607 120.07,29.47 C120.331831,29.3290488 120.541981,29.1083908 120.67,28.84 L120.67,27.62 L119.9,27.62 C118.68,27.62 118.07,27.98 118.07,28.69 C118.054768,28.9681997 118.169243,29.2377681 118.38,29.42 C118.60322,29.6095468 118.887171,29.7124791 119.18,29.71 Z" id="Shape" fill="#000000"></path>
            <polygon id="Shape" fill="#000000" points="128 30.47 127 30.47 127 27.99 124.33 27.99 124.33 30.47 123.33 30.47 123.33 24.62 124.33 24.62 124.33 27.14 127 27.14 127 24.62 128 24.62"></polygon>
            <polygon id="Shape" fill="#000000" points="134.32 30.47 133.32 30.47 133.32 27.99 130.65 27.99 130.65 30.47 129.65 30.47 129.65 24.62 130.65 24.62 130.65 27.14 133.32 27.14 133.32 24.62 134.32 24.62"></polygon>
            <path d="M137,26.62 L138.51,26.62 C139.075916,26.5979813 139.630478,26.7828355 140.07,27.14 C140.457343,27.4870125 140.666883,27.9906453 140.64,28.51 C140.665104,29.0389753 140.447943,29.5505918 140.05,29.9 C139.605523,30.2703569 139.037796,30.4595995 138.46,30.43 L136,30.43 L136,24.62 L137,24.62 L137,26.62 Z M137,27.43 L137,29.62 L138.47,29.62 C138.786541,29.6390985 139.098227,29.5352032 139.34,29.33 C139.551818,29.1239304 139.661642,28.8347252 139.64,28.54 C139.652984,28.2484633 139.548522,27.963895 139.35,27.75 C139.122604,27.537617 138.821068,27.4227462 138.51,27.43 L137,27.43 Z M142.72,30.43 L141.72,30.43 L141.72,24.62 L142.72,24.62 L142.72,30.43 Z" id="Shape" fill="#000000"></path>
            <path d="M146.86,30.62 C146.137986,30.6460706 145.439271,30.3622177 144.94,29.84 C144.429695,29.2707832 144.163877,28.5236188 144.2,27.76 L144.2,27.58 C144.190867,27.0481932 144.303758,26.5213694 144.53,26.04 C144.73516,25.607282 145.052925,25.2377072 145.45,24.97 C145.835,24.7229878 146.282573,24.5911446 146.74,24.59 C147.41143,24.5523949 148.06207,24.8296562 148.5,25.34 C148.957584,25.9520043 149.181056,26.7075527 149.13,27.47 L149.13,27.89 L145.19,27.89 C145.184634,28.3982931 145.36208,28.891594 145.69,29.28 C146.003574,29.6269113 146.452486,29.820345 146.92,29.81 C147.230787,29.8156341 147.537631,29.7397849 147.81,29.59 C148.059264,29.4446545 148.27688,29.2508401 148.45,29.02 L149.05,29.49 C148.579303,30.2363429 147.741018,30.6688826 146.86,30.62 Z M146.74,25.41 C146.360333,25.402822 145.995965,25.5595002 145.74,25.84 C145.448329,26.1873363 145.273395,26.6176736 145.24,27.07 L148.15,27.07 L148.15,27 C148.147172,26.5722203 148.003029,26.1573706 147.74,25.82 C147.491936,25.526405 147.124255,25.3609483 146.74,25.37 L146.74,25.41 Z" id="Shape" fill="#000000"></path>
            <path d="M9.08,42.77 C9.41992713,42.7774462 9.75079435,42.6600417 10.01,42.44 C10.2656356,42.2496674 10.4261535,41.9578166 10.45,41.64 L11.39,41.64 C11.3774157,41.9995054 11.2591557,42.3473289 11.05,42.64 C10.832138,42.9480421 10.5396802,43.1957711 10.2,43.36 C9.19389443,43.8614314 7.97865392,43.6507897 7.2,42.84 C6.7020151,42.2299639 6.44891774,41.4564129 6.49,40.67 L6.49,40.5 C6.48262913,39.9790918 6.59196967,39.4631411 6.81,38.99 C6.99992111,38.5751206 7.3099544,38.2267686 7.7,37.99 C8.11421328,37.7350498 8.59380146,37.6064646 9.08,37.62 C9.67574033,37.6012667 10.2558375,37.8125366 10.7,38.21 C11.1311364,38.5988368 11.3811033,39.1494886 11.39,39.73 L10.45,39.73 C10.4329684,39.3779634 10.2828423,39.0455414 10.03,38.8 C9.75929578,38.5493274 9.39836509,38.4193924 9.03,38.44 C8.57195592,38.4158303 8.13112414,38.6175669 7.85,38.98 C7.54921585,39.4498516 7.40563108,40.0031783 7.44,40.56 L7.44,40.75 C7.40647921,41.2941694 7.55034247,41.8345339 7.85,42.29 C8.15299306,42.6469428 8.61532574,42.8273653 9.08,42.77 Z" id="Shape" fill="#000000"></path>
            <polygon id="Shape" fill="#000000" points="20 43.47 19 43.47 19 40.99 16.32 40.99 16.32 43.47 15.32 43.47 15.32 37.62 16.32 37.62 16.32 40.14 19 40.14 19 37.62 20 37.62"></polygon>
            <path d="M24,43.62 C23.2750017,43.6463813 22.5730873,43.3627061 22.07,42.84 C21.5596954,42.2707832 21.2938773,41.5236188 21.33,40.76 L21.33,40.58 C21.3208673,40.0481932 21.4337582,39.5213694 21.66,39.04 C21.8657805,38.6046467 22.1875612,38.2344259 22.59,37.97 C22.9707066,37.7217091 23.4154829,37.5896661 23.87,37.59 C24.5443238,37.5523253 25.1980301,37.8293194 25.64,38.34 C26.0893143,38.9556887 26.3086905,39.7093522 26.26,40.47 L26.26,40.89 L22.32,40.89 C22.3100466,41.3990575 22.4880571,41.8939267 22.82,42.28 C23.1296808,42.6264544 23.575424,42.8200969 24.04,42.81 C24.3509457,42.8170591 24.6581547,42.7411198 24.93,42.59 C25.1820143,42.4484773 25.40036,42.2540131 25.57,42.02 L26.18,42.49 C25.7081499,43.2299064 24.8766003,43.6609391 24,43.62 Z M23.87,38.41 C23.490841,38.4053896 23.1274796,38.561635 22.87,38.84 C22.578329,39.1873363 22.4033952,39.6176736 22.37,40.07 L25.2800171,40.07 L25.28,40 C25.281827,39.5714319 25.1371703,39.1551029 24.87,38.82 C24.6206459,38.5224009 24.2480169,38.3563781 23.86,38.37 L23.87,38.41 Z" id="Shape" fill="#000000"></path>
            <path d="M27.36,42.62 L27.7,42.19 C28.1398213,41.522769 28.3697003,40.7390907 28.36,39.94 L28.45,37.62 L32.19,37.62 L32.19,42.62 L32.94,42.62 L32.94,45.14 L31.94,45.14 L31.94,43.43 L27.89,43.43 L27.89,45.14 L26.89,45.14 L26.89,42.62 L27.36,42.62 Z M28.53,42.62 L31.2,42.62 L31.2,38.62 L29.41,38.62 L29.35,40 C29.3387353,40.9347265 29.0536416,41.8456357 28.53,42.62 Z" id="Shape" fill="#000000"></path>
            <path d="M34.13,43.47 L34.13,37.62 L36.4,37.62 C37.0193101,37.5812092 37.6368277,37.7199772 38.18,38.02 C38.5846897,38.2771707 38.8211259,38.7309757 38.8,39.21 C38.8014451,39.4729471 38.7171948,39.7292085 38.56,39.94 C38.3769909,40.1721638 38.1302532,40.3459228 37.85,40.44 C38.1745478,40.5049312 38.4692889,40.6733547 38.69,40.92 C38.9001199,41.1567669 39.0142422,41.4634704 39.01,41.78 C39.0305256,42.262688 38.8092969,42.7238936 38.42,43.01 C37.9238354,43.3192865 37.3435528,43.466105 36.76,43.43 L34.13,43.47 Z M35.13,40.12 L36.41,40.12 C37.34,40.12 37.81,39.85 37.81,39.31 C37.81,38.77 37.37,38.48 36.49,38.46 L35.13,38.46 L35.13,40.12 Z M35.13,40.92 L35.13,42.67 L36.77,42.67 C37.0965097,42.6934623 37.4220651,42.6129486 37.7,42.44 C37.9059414,42.2891478 38.0223908,42.0449798 38.01,41.79 C38.01,41.21 37.59,40.92 36.73,40.92 L35.13,40.92 Z" id="Shape" fill="#000000"></path>
            <polygon id="Shape" fill="#000000" points="44.09 37.62 45.09 37.62 45.09 43.43 44.09 43.43 44.09 39.19 41.41 43.43 40.41 43.43 40.41 37.62 41.41 37.62 41.41 41.86"></polygon>
            <polygon id="Shape" fill="#000000" points="51.31 40.95 50.61 40.95 50.61 43.47 49.61 43.47 49.61 40.95 48.91 40.95 47.28 43.47 46 43.47 48.07 40.47 46.19 37.67 47.4 37.67 48.9 40.07 49.58 40.07 49.58 37.62 50.58 37.62 50.58 40.02 51.26 40.02 52.77 37.62 54 37.62 52.12 40.43 54.19 43.43 52.94 43.43"></polygon>
            <polygon id="Shape" fill="#000000" points="58.86 37.62 59.86 37.62 59.86 43.43 58.86 43.43 58.86 39.19 56.18 43.43 55.18 43.43 55.18 37.62 56.18 37.62 56.18 41.86"></polygon>
            <polygon id="Shape" fill="#000000" points="64.79 42.15 66.79 37.66 68 37.66 68 43.47 67 43.47 67 39.24 65.12 43.47 64.43 43.47 62.51 39.15 62.51 43.47 61.51 43.47 61.51 37.62 62.8 37.62"></polygon>
            <path d="M70.69,39.62 L72.2,39.62 C72.7661797,39.5961182 73.3213853,39.7811867 73.76,40.14 C74.1534984,40.4833398 74.3673568,40.9884879 74.34,41.51 C74.3593456,42.0379292 74.1431904,42.547176 73.75,42.9 C73.3040857,43.2677685 72.7373926,43.4566662 72.16,43.43 L69.7,43.43 L69.7,37.62 L70.7,37.62 L70.69,39.62 Z M70.69,40.43 L70.69,42.62 L72.17,42.62 C72.483435,42.6385762 72.7918176,42.5345867 73.03,42.33 C73.2454885,42.1257456 73.3590699,41.8362963 73.34,41.54 C73.3502985,41.2470396 73.2421617,40.9622793 73.04,40.75 C72.8126035,40.537617 72.5110677,40.4227462 72.2,40.43 L70.69,40.43 Z M76.41,43.43 L75.41,43.43 L75.41,37.62 L76.41,37.62 L76.41,43.43 Z" id="Shape" fill="#000000"></path>
            <polygon id="Shape" fill="#000000" points="81.49 42.15 83.49 37.66 84.73 37.66 84.73 43.47 83.73 43.47 83.73 39.24 81.85 43.47 81.17 43.47 79.25 39.15 79.25 43.47 78.25 43.47 78.25 37.62 79.53 37.62"></polygon>
            <polygon id="Shape" fill="#000000" points="92.79 37.62 93.79 37.62 93.79 43.43 92.79 43.43 92.79 39.19 90.11 43.43 89.11 43.43 89.11 37.62 90.11 37.62 90.11 41.86"></polygon>
            <path d="M98.05,42.62 L98.39,42.19 C98.8298213,41.522769 99.0597003,40.7390907 99.05,39.94 L99.15,37.62 L102.89,37.62 L102.89,42.62 L103.64,42.62 L103.64,45.14 L102.64,45.14 L102.64,43.43 L98.64,43.43 L98.64,45.14 L97.64,45.14 L97.64,42.62 L98.05,42.62 Z M99.23,42.62 L101.9,42.62 L101.9,38.62 L100.11,38.62 L100.05,40 C100.034137,40.9339896 99.749444,41.8436198 99.23,42.62 Z" id="Shape" fill="#000000"></path>
            <path d="M104.83,43.47 L104.83,37.62 L107.09,37.62 C107.712477,37.5815088 108.333119,37.7201997 108.88,38.02 C109.28469,38.2771707 109.521126,38.7309757 109.5,39.21 C109.503225,39.4748633 109.414918,39.73272 109.25,39.94 C109.066991,40.1721638 108.820253,40.3459228 108.54,40.44 C108.866416,40.5075523 109.163584,40.6753647 109.39,40.92 C109.60012,41.1567669 109.714242,41.4634704 109.71,41.78 C109.730526,42.262688 109.509297,42.7238936 109.12,43.01 C108.620215,43.3194577 108.036718,43.4662054 107.45,43.43 L104.83,43.47 Z M105.83,40.12 L107.12,40.12 C108.05,40.12 108.51,39.85 108.51,39.31 C108.51,38.77 108.07,38.48 107.19,38.46 L105.83,38.46 L105.83,40.12 Z M105.83,40.92 L105.83,42.67 L107.48,42.67 C107.806274,42.6907694 108.131019,42.6104562 108.41,42.44 C108.61182,42.285769 108.727171,42.0439038 108.72,41.79 C108.72,41.21 108.29,40.92 107.44,40.92 L105.83,40.92 Z" id="Shape" fill="#000000"></path>
            <polygon id="Shape" fill="#000000" points="114.78 37.62 115.78 37.62 115.78 43.43 114.78 43.43 114.78 39.19 112.1 43.43 111.1 43.43 111.1 37.62 112.1 37.62 112.1 41.86"></polygon>
            <polygon id="Shape" fill="#000000" points="122 40.95 121.31 40.95 121.31 43.47 120.31 43.47 120.31 40.95 119.61 40.95 118 43.47 116.74 43.47 118.82 40.47 116.94 37.67 118.14 37.67 119.64 40.07 120.32 40.07 120.32 37.62 121.32 37.62 121.32 40.02 122 40.02 123.51 37.62 124.72 37.62 122.83 40.43 124.91 43.43 123.65 43.43"></polygon>
            <polygon id="Shape" fill="#000000" points="129.55 37.62 130.55 37.62 130.55 43.43 129.55 43.43 129.55 39.19 126.87 43.43 125.87 43.43 125.87 37.62 126.87 37.62 126.87 41.86"></polygon>
            <polygon id="Shape" fill="#000000" points="135.49 42.15 137.49 37.66 138.73 37.66 138.73 43.47 137.73 43.47 137.73 39.24 135.85 43.47 135.16 43.47 133.25 39.15 133.25 43.47 132.25 43.47 132.25 37.62 133.54 37.62"></polygon>
            <path d="M141.38,39.62 L142.89,39.62 C143.459054,39.5973688 144.016964,39.7821544 144.46,40.14 C144.847343,40.4870125 145.056883,40.9906453 145.03,41.51 C145.049346,42.0379292 144.83319,42.547176 144.44,42.9 C143.995523,43.2703569 143.427796,43.4595995 142.85,43.43 L140.39,43.43 L140.39,37.62 L141.39,37.62 L141.38,39.62 Z M141.38,40.43 L141.38,42.62 L142.86,42.62 C143.176267,42.6370451 143.487213,42.5333964 143.73,42.33 C143.941818,42.1239304 144.051642,41.8347252 144.03,41.54 C144.040299,41.2470396 143.932162,40.9622793 143.73,40.75 C143.507459,40.5363158 143.20839,40.4210123 142.9,40.43 L141.38,40.43 Z M147.1,43.43 L146.1,43.43 L146.1,37.62 L147.1,37.62 L147.1,43.43 Z" id="Shape" fill="#000000"></path>
            <polygon id="Shape" fill="#000000" points="152.19 42.15 154.19 37.66 155.43 37.66 155.43 43.47 154.43 43.47 154.43 39.24 152.55 43.47 151.86 43.47 149.94 39.15 149.94 43.47 148.94 43.47 148.94 37.62 150.23 37.62"></polygon>
            <polygon id="Shape" fill="#000000" points="10.51 50.62 11.51 50.62 11.51 56.43 10.51 56.43 10.51 52.19 7.83 56.43 6.83 56.43 6.83 50.62 7.83 50.62 7.83 54.86"></polygon>
            <polygon id="Shape" fill="#000000" points="16.45 55.15 18.45 50.66 19.69 50.66 19.69 56.47 18.69 56.47 18.69 52.24 16.81 56.47 16.1 56.47 14.19 52.15 14.19 56.47 13.19 56.47 13.19 50.62 14.48 50.62"></polygon>
            <path d="M23.16,55.01 L24.51,50.62 L25.58,50.62 L23.24,57.33 C22.88,58.33 22.3,58.78 21.52,58.78 L21.33,58.78 L20.96,58.71 L20.96,57.91 L21.23,57.91 C21.5059258,57.9267547 21.7797838,57.8530237 22.01,57.7 C22.241315,57.5095387 22.4059411,57.2503402 22.48,56.96 L22.7,56.37 L20.63,50.62 L21.71,50.62 L23.16,55.01 Z" id="Shape" fill="#000000"></path>
            <polygon id="Shape" fill="#000000" points="27.49 50.62 27.49 55.62 29.62 55.62 29.62 50.62 30.62 50.62 30.62 55.62 32.74 55.62 32.74 50.62 33.74 50.62 33.74 55.62 34.56 55.62 34.46 58.15 33.57 58.15 33.57 56.43 26.49 56.43 26.49 50.62"></polygon>
            <path d="M38,56.62 C37.2777577,56.6473679 36.5785306,56.3633069 36.08,55.84 C35.5648879,55.2736528 35.2983376,54.5244304 35.34,53.76 L35.34,53.58 C35.3308673,53.0481932 35.4437582,52.5213694 35.67,52.04 C35.8721626,51.6053413 36.1905572,51.2350346 36.59,50.97 C36.9742891,50.7214342 37.4223289,50.5894535 37.88,50.59 C38.550888,50.5554708 39.2002276,50.832178 39.64,51.34 C40.0975842,51.9520043 40.3210563,52.7075527 40.27,53.47 L40.27,53.89 L36.33,53.89 C36.3200466,54.3990575 36.4980571,54.8939267 36.83,55.28 C37.1396808,55.6264544 37.585424,55.8200969 38.05,55.81 C38.3609457,55.8170591 38.6681547,55.7411198 38.94,55.59 C39.1920143,55.4484773 39.41036,55.2540131 39.58,55.02 L40.19,55.49 C39.7163456,56.2331104 38.880098,56.6645989 38,56.62 Z M37.88,51.41 C37.5000757,51.401503 37.1351851,51.558406 36.88,51.84 C36.5853017,52.186423 36.4069004,52.6166852 36.37,53.07 L39.2800171,53.07 L39.28,53 C39.281827,52.5714319 39.1371703,52.1551029 38.87,51.82 C38.6326139,51.5349976 38.2809158,51.3701391 37.91,51.37 L37.88,51.41 Z" id="Shape" fill="#000000"></path>
            <path d="M43.78,55.77 C44.1193363,55.7738353 44.4489771,55.656866 44.71,55.44 C44.9617108,55.2462746 45.1211864,54.9563189 45.15,54.64 L46.09,54.64 C46.0733181,55.0003266 45.9516617,55.3479163 45.74,55.64 C45.5236654,55.945604 45.2350952,56.1929499 44.9,56.36 C44.5533015,56.5373847 44.1694421,56.6299223 43.78,56.63 C43.0638654,56.6608384 42.3711675,56.371298 41.89,55.84 C41.394742,55.2289877 41.1451465,54.4552418 41.19,53.67 L41.19,53.5 C41.1791547,52.9798214 41.2850866,52.4638307 41.5,51.99 C41.6929534,51.5771083 42.0022805,51.2295498 42.39,50.99 C42.8042133,50.7350498 43.2838015,50.6064646 43.77,50.62 C44.3683435,50.6037752 44.9506659,50.8145545 45.4,51.21 C45.8311364,51.5988368 46.0811033,52.1494886 46.09,52.73 L45.15,52.73 C45.1333868,52.3757971 44.9790917,52.0420891 44.72,51.8 C44.4505411,51.5472864 44.0887064,51.4170259 43.72,51.44 C43.2654158,51.4191517 42.8290602,51.6205465 42.55,51.98 C42.2410726,52.4466056 42.0935466,53.0015843 42.13,53.56 L42.13,53.75 C42.0964792,54.2941694 42.2403425,54.8345339 42.54,55.29 C42.8450386,55.65014 43.3119812,55.830892 43.78,55.77 Z" id="Shape" fill="#000000"></path>
            <polygon id="Shape" fill="#000000" points="51.52 51.46 49.52 51.46 49.52 56.46 48.52 56.46 48.52 51.46 46.61 51.46 46.61 50.62 51.46 50.62"></polygon>
            <path d="M52.58,56.47 L52.58,50.62 L54.85,50.62 C55.4692215,50.5823191 56.086433,50.7210183 56.63,51.02 C57.0346897,51.2771707 57.2711259,51.7309757 57.25,52.21 C57.2514451,52.4729471 57.1671948,52.7292085 57.01,52.94 C56.8231094,53.1724731 56.5731105,53.3460835 56.29,53.44 C56.6164159,53.5075523 56.9135839,53.6753647 57.14,53.92 C57.3501199,54.1567669 57.4642422,54.4634704 57.46,54.78 C57.4805256,55.262688 57.2592969,55.7238936 56.87,56.01 C56.3733122,56.3180562 55.7934279,56.4647739 55.21,56.43 L52.58,56.47 Z M53.58,53.12 L54.87,53.12 C55.8,53.12 56.26,52.85 56.26,52.31 C56.26,51.77 55.82,51.48 54.94,51.46 L53.58,51.46 L53.58,53.12 Z M53.58,53.92 L53.58,55.67 L55.23,55.67 C55.5562738,55.6907694 55.8810186,55.6104562 56.16,55.44 C56.3618202,55.285769 56.4771713,55.0439038 56.47,54.79 C56.47,54.21 56.04,53.92 55.19,53.92 L53.58,53.92 Z" id="Shape" fill="#000000"></path>
            <path d="M58.51,53.51 C58.5019249,52.9782966 58.6147652,52.4517084 58.84,51.97 C59.0502574,51.5398427 59.3756371,51.1763866 59.78,50.92 C60.1915692,50.6674534 60.6672499,50.5389849 61.15,50.55 C61.8802623,50.5233209 62.584315,50.8240101 63.07,51.37 C63.5799328,51.9823049 63.8405633,52.7641964 63.8,53.56 L63.8,53.62 C63.8078466,54.1452519 63.694944,54.6652882 63.47,55.14 C63.2731361,55.5727751 62.9531528,55.9379733 62.55,56.19 C62.131507,56.4445967 61.6498126,56.5762829 61.16,56.57 C60.4305205,56.5924953 59.728166,56.2925314 59.24,55.75 C58.7315878,55.1407626 58.4709929,54.3625475 58.51,53.57 L58.51,53.51 Z M59.51,53.63 C59.4829758,54.1823896 59.6413678,54.7279623 59.96,55.18 C60.2388993,55.5617251 60.6874017,55.7822388 61.16,55.77 C61.6348212,55.7816971 62.0844649,55.5568752 62.36,55.17 C62.6876178,54.6808215 62.8457014,54.0976687 62.81,53.51 C62.8325823,52.9566444 62.6707837,52.4114534 62.35,51.96 C62.0640677,51.5898377 61.6227364,51.3730791 61.155,51.3730791 C60.6872636,51.3730791 60.2459323,51.5898377 59.96,51.96 C59.6337336,52.4497931 59.4757753,53.0324834 59.51,53.62 L59.51,53.63 Z" id="Shape" fill="#000000"></path>
            <polygon id="Shape" fill="#000000" points="68.39 55.15 70.39 50.66 71.63 50.66 71.63 56.47 70.63 56.47 70.63 52.24 68.75 56.47 68.06 56.47 66.14 52.15 66.14 56.47 65.14 56.47 65.14 50.62 66.43 50.62"></polygon>
        </g>
    </g>
</svg>