<?xml version="1.0" encoding="UTF-8"?>
<svg width="211px" height="79px" viewBox="0 0 211 79" version="1.1" xmlns="http://www.w3.org/2000/svg" xmlns:xlink="http://www.w3.org/1999/xlink">
    <!-- Generator: Sketch 50.2 (55047) - http://www.bohemiancoding.com/sketch -->
    <title>reg-5</title>
    <desc>Created with Sketch.</desc>
    <defs></defs>
    <g id="Page-1" stroke="none" stroke-width="1" fill="none" fill-rule="evenodd">
        <g id="reg-5" fill-rule="nonzero">
            <rect id="Rectangle-path" fill="#F5AF00" x="0" y="0.61" width="211" height="78"></rect>
            <polygon id="Shape" fill="#000000" points="11.51 43.74 10.51 43.74 10.51 38.74 7.84 38.74 7.84 43.74 6.84 43.74 6.84 37.93 11.51 37.93"></polygon>
            <path d="M15.51,43.84 C14.78907,43.8712595 14.0895604,43.590727 13.59,43.07 C13.0796954,42.5007832 12.8138773,41.7536188 12.85,40.99 L12.85,40.81 C12.8397904,40.278089 12.9527331,39.7510231 13.18,39.27 C13.3826018,38.8356247 13.7009032,38.4654263 14.1,38.2 C14.4850005,37.9529878 14.9325734,37.8211446 15.39,37.82 C16.060888,37.7854708 16.7102276,38.062178 17.15,38.57 C17.6075842,39.1820043 17.8310563,39.9375527 17.78,40.7 L17.78,41.12 L13.84,41.12 C13.8325095,41.6256313 14.010366,42.1165153 14.34,42.5 C14.6494448,42.8526343 15.1011626,43.0472769 15.57,43.03 C15.8798921,43.0386979 16.1866826,42.9663092 16.46,42.82 C16.7073028,42.6719686 16.924438,42.4785826 17.1,42.25 L17.7,42.72 C17.2283095,43.4641586 16.3894531,43.8931629 15.51,43.84 Z M15.39,38.62 C15.0090324,38.6166707 14.6449284,38.7768765 14.39,39.06 C14.0953017,39.406423 13.9169004,39.8366852 13.88,40.29 L16.8,40.29 L16.8,40.21 C16.7957214,39.7855235 16.6516168,39.3742982 16.39,39.04 C16.1370646,38.7563543 15.7696158,38.6020258 15.39,38.62 Z" id="Shape" fill="#000000"></path>
            <path d="M23.84,40.9 C23.8778935,41.6579308 23.6633628,42.4070299 23.23,43.03 C22.8529096,43.5569407 22.2376341,43.8608268 21.59,43.84 C20.9616953,43.8743043 20.3503746,43.6290439 19.92,43.17 L19.92,45.97 L18.92,45.97 L18.92,37.97 L19.83,37.97 L19.83,38.61 C20.2431999,38.1070333 20.8698111,37.8289514 21.52,37.86 C22.1687465,37.8383509 22.787651,38.1328898 23.18,38.65 C23.6185792,39.2930808 23.8329726,40.0627883 23.79,40.84 L23.84,40.9 Z M22.84,40.78 C22.8691609,40.2317341 22.7219727,39.6885394 22.42,39.23 C22.1617124,38.8584359 21.7322239,38.6436917 21.28,38.66 C20.7098347,38.6401637 20.1796835,38.9520173 19.92,39.46 L19.92,42.24 C20.1821615,42.7492756 20.7179032,43.058207 21.29,43.03 C21.7360679,43.041555 22.1590297,42.8319456 22.42,42.47 C22.7341485,41.9648133 22.8811082,41.3734754 22.84,40.78 Z" id="Shape" fill="#000000"></path>
            <path d="M27.51,43.84 C26.78907,43.8712595 26.0895604,43.590727 25.59,43.07 C25.0748879,42.5036528 24.8083376,41.7544304 24.85,40.99 L24.85,40.81 C24.8397904,40.278089 24.9527331,39.7510231 25.18,39.27 C25.3826018,38.8356247 25.7009032,38.4654263 26.1,38.2 C26.4850005,37.9529878 26.9325734,37.8211446 27.39,37.82 C28.060888,37.7854708 28.7102276,38.062178 29.15,38.57 C29.6075842,39.1820043 29.8310563,39.9375527 29.78,40.7 L29.78,41.12 L25.84,41.12 C25.8257477,41.6267438 26.0044608,42.1199922 26.34,42.5 C26.6471974,42.849876 27.0946179,43.0442472 27.56,43.03 C27.8732101,43.0399868 28.1835539,42.9675732 28.46,42.82 C28.7073028,42.6719686 28.924438,42.4785826 29.1,42.25 L29.7,42.72 C29.2283095,43.4641586 28.3894531,43.8931629 27.51,43.84 Z M27.39,38.62 C27.0090324,38.6166707 26.6449284,38.7768765 26.39,39.06 C26.0953017,39.406423 25.9169004,39.8366852 25.88,40.29 L28.79,40.29 L28.79,40.21 C28.7939929,39.7857963 28.6528567,39.372973 28.39,39.04 C28.1370646,38.7563543 27.7696158,38.6020258 27.39,38.62 Z" id="Shape" fill="#000000"></path>
            <path d="M31,43.74 L31,37.93 L33.27,37.93 C33.8892215,37.8923191 34.506433,38.0310183 35.05,38.33 C35.4546897,38.5871707 35.6911259,39.0409757 35.67,39.52 C35.6732251,39.7848633 35.584918,40.04272 35.42,40.25 C35.2369909,40.4821638 34.9902532,40.6559228 34.71,40.75 C35.0364159,40.8175523 35.3335839,40.9853647 35.56,41.23 C35.7718331,41.465734 35.8862138,41.7731323 35.88,42.09 C35.9025872,42.5703326 35.6805489,43.0294628 35.29,43.31 C34.7963581,43.6259508 34.2149538,43.7765555 33.63,43.74 L31,43.74 Z M32,40.39 L33.29,40.39 C34.22,40.39 34.68,40.12 34.68,39.58 C34.68,39.04 34.24,38.75 33.36,38.73 L32,38.73 L32,40.39 Z M32,41.19 L32,42.94 L33.65,42.94 C33.9762738,42.9607694 34.3010186,42.8804562 34.58,42.71 C34.7805234,42.5547203 34.8955401,42.3135562 34.89,42.06 C34.89,41.48 34.46,41.19 33.61,41.19 L32,41.19 Z" id="Shape" fill="#000000"></path>
            <path d="M37,40.78 C36.9919249,40.2482966 37.1047652,39.7217084 37.33,39.24 C37.5477089,38.8282031 37.8724438,38.4827404 38.27,38.24 C38.6815692,37.9874534 39.1572499,37.8589849 39.64,37.87 C40.3702623,37.8433209 41.074315,38.1440101 41.56,38.69 C42.0656372,39.3046884 42.3256967,40.0848669 42.29,40.88 L42.29,40.95 C42.2978466,41.4752519 42.184944,41.9952882 41.96,42.47 C41.7625155,42.9054758 41.4384385,43.2713692 41.03,43.52 C40.614655,43.7723132 40.1358592,43.900686 39.65,43.89 C38.9197377,43.9166791 38.215685,43.6159899 37.73,43.07 C37.2195838,42.4658088 36.9585448,41.6898438 37,40.9 L37,40.78 Z M38,40.9 C37.9729758,41.4523896 38.1313678,41.9979623 38.45,42.45 C38.737965,42.8203919 39.1808369,43.0370477 39.65,43.0370477 C40.1191631,43.0370477 40.562035,42.8203919 40.85,42.45 C41.1762664,41.9602069 41.3342247,41.3775166 41.3,40.79 C41.324119,40.2364541 41.1621754,39.6907746 40.84,39.24 C40.5563975,38.866192 40.1142151,38.6466284 39.645,38.6466284 C39.1757849,38.6466284 38.7336025,38.866192 38.45,39.24 C38.1237336,39.7297931 37.9657753,40.3124834 38,40.9 Z" id="Shape" fill="#000000"></path>
            <path d="M46.68,39.52 C46.6923908,39.2650202 46.5759414,39.0208522 46.37,38.87 C46.1212581,38.6976623 45.8221436,38.6132065 45.52,38.63 C45.2044108,38.6166348 44.8937881,38.7119395 44.64,38.9 C44.4243612,39.0466675 44.2937469,39.2892369 44.29,39.55 L43.29,39.55 C43.2823663,39.0579966 43.5181319,38.5939501 43.92,38.31 C44.3803105,37.9734937 44.9401227,37.800973 45.51,37.82 C46.0709959,37.7863801 46.6271315,37.9412533 47.09,38.26 C47.473593,38.5578997 47.6866121,39.0250468 47.66,39.51 C47.6636154,39.7686175 47.5828743,40.0213722 47.43,40.23 C47.2568069,40.4597557 47.0255481,40.6392401 46.76,40.75 C47.3728722,40.9100065 47.7899966,41.4772958 47.76,42.11 C47.7784304,42.6075508 47.5454507,43.0810256 47.14,43.37 C46.1328003,44.0090001 44.8471997,44.0090001 43.84,43.37 C43.4133886,43.0642432 43.1691293,42.5644511 43.19,42.04 L44.19,42.04 C44.1962493,42.3291875 44.3367011,42.5990027 44.57,42.77 C44.8558239,42.9881544 45.2112914,43.0947946 45.57,43.07 C45.8933576,43.0830879 46.2123655,42.9919428 46.48,42.81 C46.7044727,42.6573884 46.8362492,42.4013655 46.83,42.13 C46.8588355,41.862508 46.7495559,41.5987298 46.54,41.43 C46.264527,41.2704855 45.9475158,41.197329 45.63,41.22 L44.63,41.22 L44.63,40.37 L45.71,40.37 C46.34,40.34 46.68,40.06 46.68,39.52 Z" id="Shape" fill="#000000"></path>
            <polygon id="Shape" fill="#000000" points="50.88 41.26 50.16 41.26 50.16 43.74 49.16 43.74 49.16 37.93 50.16 37.93 50.16 40.39 50.81 40.39 52.81 37.93 54 37.93 51.71 40.72 54.2 43.72 52.9 43.72"></polygon>
            <path d="M58.6,43.74 C58.5235676,43.5411998 58.4764088,43.332354 58.46,43.12 C58.037105,43.5832885 57.4372568,43.8450405 56.81,43.84 C56.2957294,43.8675072 55.7906692,43.6955718 55.4,43.36 C55.0397038,43.0536817 54.8344598,42.602878 54.84,42.13 C54.8136326,41.5729065 55.0739249,41.0410047 55.53,40.72 C56.1095275,40.3476436 56.7923776,40.169052 57.48,40.21 L58.48,40.21 L58.48,39.76 C58.4988428,39.4519208 58.386188,39.1502966 58.17,38.93 C57.9188101,38.7048942 57.5861996,38.5928189 57.25,38.62 C56.9317344,38.6098341 56.6189721,38.704717 56.36,38.89 C56.1392371,39.0331907 56.0042597,39.2768998 56,39.54 L55,39.54 C55.0093249,39.233756 55.1181473,38.9388826 55.31,38.7 C55.532998,38.4182708 55.8213243,38.1951611 56.15,38.05 C56.517015,37.8952876 56.9117198,37.8170271 57.31,37.82 C57.8800266,37.7883448 58.4419616,37.9661724 58.89,38.32 C59.2738589,38.6752411 59.4884018,39.1770532 59.48,39.7 L59.48,42.38 C59.4597846,42.8125196 59.5278331,43.2446272 59.68,43.65 L59.68,43.74 L58.6,43.74 Z M56.95,42.98 C57.2625939,42.9795364 57.5695536,42.8967607 57.84,42.74 C58.1018305,42.5990488 58.3119811,42.3783908 58.44,42.11 L58.44,40.92 L57.66,40.92 C56.45,40.92 55.84,41.27 55.84,41.99 C55.8247685,42.2681997 55.9392427,42.5377681 56.15,42.72 C56.3905568,42.910472 56.6940523,43.0033059 57,42.98 L56.95,42.98 Z" id="Shape" fill="#000000"></path>
            <path d="M61,45.29 L60.44,44.91 C60.7558213,44.4902891 60.9371133,43.9847633 60.96,43.46 L60.96,42.56 L61.96,42.56 L61.96,43.34 C61.9311517,44.0923567 61.5906098,44.7988001 61.02,45.29 L61,45.29 Z" id="Shape" fill="#000000"></path>
            <polygon id="Shape" fill="#000000" points="70.2 38.73 68.25 38.73 68.25 43.73 67.25 43.73 67.25 38.73 65.34 38.73 65.34 37.93 70.2 37.93"></polygon>
            <path d="M76.07,40.9 C76.1078935,41.6579308 75.8933628,42.4070299 75.46,43.03 C75.0829096,43.5569407 74.4676341,43.8608268 73.82,43.84 C73.1946549,43.8740879 72.586481,43.6286201 72.16,43.17 L72.16,45.97 L71.16,45.97 L71.16,37.97 L72.07,37.97 L72.12,38.61 C72.5249488,38.1019771 73.151425,37.8223003 73.8,37.86 C74.4487465,37.8383509 75.067651,38.1328898 75.46,38.65 C75.9027656,39.2911275 76.117566,40.0622961 76.07,40.84 L76.07,40.9 Z M75.07,40.78 C75.0991609,40.2317341 74.9519727,39.6885394 74.65,39.23 C74.3872791,38.8582703 73.9549157,38.6439684 73.5,38.66 C72.9327589,38.6416109 72.4062608,38.9536098 72.15,39.46 L72.15,42.24 C72.4087316,42.7476788 72.940822,43.0567607 73.51,43.03 C73.9591811,43.0431373 74.3858549,42.8335432 74.65,42.47 C74.96765,41.9659721 75.1181297,41.3745517 75.08,40.78 L75.07,40.78 Z" id="Shape" fill="#000000"></path>
            <path d="M80.92,43.74 C80.8435676,43.5411998 80.7964088,43.332354 80.78,43.12 C80.357105,43.5832885 79.7572568,43.8450405 79.13,43.84 C78.6157294,43.8675072 78.1106692,43.6955718 77.72,43.36 C77.3622768,43.0526375 77.1605659,42.6015385 77.17,42.13 C77.1436326,41.5729065 77.4039249,41.0410047 77.86,40.72 C78.4352947,40.3464743 79.1153869,40.1676871 79.8,40.21 L80.8,40.21 L80.8,39.76 C80.8149477,39.4506194 80.6987663,39.149274 80.48,38.93 C80.232494,38.7054298 79.903128,38.5932282 79.57,38.62 C79.248444,38.6083665 78.9320513,38.7032843 78.67,38.89 C78.4492371,39.0331907 78.3142597,39.2768998 78.31,39.54 L77.31,39.54 C77.3150072,39.2346466 77.4204378,38.939441 77.61,38.7 C77.832998,38.4182708 78.1213243,38.1951611 78.45,38.05 C78.817015,37.8952876 79.2117198,37.8170271 79.61,37.82 C80.1800266,37.7883448 80.7419616,37.9661724 81.19,38.32 C81.5770998,38.6729474 81.7922991,39.1762951 81.78,39.7 L81.78,42.38 C81.7747646,42.8034853 81.849401,43.2241627 82,43.62 L82,43.71 L80.92,43.74 Z M79.27,42.98 C79.5825939,42.9795364 79.8895536,42.8967607 80.16,42.74 C80.4223074,42.5964444 80.6349784,42.3768006 80.77,42.11 L80.77,40.92 L80,40.92 C78.78,40.92 78.17,41.27 78.17,41.99 C78.1547685,42.2681997 78.2692427,42.5377681 78.48,42.72 C78.7055504,42.8950263 78.9845878,42.9868614 79.27,42.98 Z" id="Shape" fill="#000000"></path>
            <polygon id="Shape" fill="#000000" points="88.06 43.74 87.06 43.74 87.06 41.26 84.4 41.26 84.4 43.74 83.4 43.74 83.4 37.93 84.4 37.93 84.4 40.44 87.07 40.44 87.07 37.93 88.07 37.93"></polygon>
            <path d="M92,43.03 C92.3386386,43.0402351 92.6693569,42.9264395 92.93,42.71 C93.1856356,42.5196674 93.3461535,42.2278166 93.37,41.91 L94.31,41.91 C94.2974157,42.2695054 94.1791557,42.6173289 93.97,42.91 C93.7496433,43.2157457 93.4578254,43.4629326 93.12,43.63 C92.7716903,43.8018157 92.3883808,43.8907983 92,43.89 C91.2836137,43.922254 90.5903369,43.6324717 90.11,43.1 C89.6196487,42.4902202 89.3705212,41.7214841 89.41,40.94 L89.41,40.77 C89.4030955,40.2501878 89.508853,39.7350466 89.72,39.26 C89.92036,38.8489122 90.2322157,38.5024059 90.62,38.26 C91.0370364,38.0127178 91.5153117,37.8879503 92,37.9 C92.5943827,37.878529 93.1743099,38.0861572 93.62,38.48 C94.0491616,38.8702782 94.2987184,39.4200263 94.31,40 L93.37,40 C93.3518701,39.6490561 93.1976106,39.3190127 92.94,39.08 C92.7034287,38.8037027 92.3633289,38.6372709 92,38.62 C91.5405048,38.5999057 91.1000882,38.8051847 90.82,39.17 C90.5132153,39.637211 90.3691037,40.192568 90.41,40.75 L90.41,40.93 C90.3720389,41.4777392 90.5161811,42.0226672 90.82,42.48 C91.0989836,42.8461896 91.5401626,43.0518239 92,43.03 Z" id="Shape" fill="#000000"></path>
            <polygon id="Shape" fill="#000000" points="100.17 43.74 99.17 43.74 99.17 38.74 96.5 38.74 96.5 43.74 95.5 43.74 95.5 37.93 100.17 37.93"></polygon>
            <path d="M101.5,40.78 C101.495399,40.2475583 101.611649,39.7210107 101.84,39.24 C102.051187,38.8268175 102.373202,38.4805649 102.77,38.24 C103.18224,37.9890121 103.657455,37.8606691 104.14,37.87 C104.870262,37.8433209 105.574315,38.1440101 106.06,38.69 C106.569933,39.3023049 106.830563,40.0841964 106.79,40.88 L106.79,40.95 C106.801329,41.4745041 106.691838,41.9945837 106.47,42.47 C106.266548,42.9015745 105.943845,43.2659164 105.54,43.52 C105.121111,43.77261 104.63904,43.900931 104.15,43.89 C103.422392,43.9179321 102.720882,43.61676 102.24,43.07 C101.726873,42.4667952 101.462328,41.6910346 101.5,40.9 L101.5,40.78 Z M102.5,40.9 C102.472976,41.4523896 102.631368,41.9979623 102.95,42.45 C103.229941,42.8293179 103.678849,43.0462901 104.15,43.03 C104.624536,43.0512943 105.077089,42.8287892 105.35,42.44 C105.676266,41.9502069 105.834225,41.3675166 105.8,40.78 C105.827024,40.2276104 105.668632,39.6820377 105.35,39.23 C105.068976,38.8442537 104.617157,38.6202111 104.14,38.63 C103.670903,38.6210593 103.226863,38.8412137 102.95,39.22 C102.619495,39.7153496 102.461347,40.3057688 102.5,40.9 Z" id="Shape" fill="#000000"></path>
            <path d="M113,40.9 C113.037894,41.6579308 112.823363,42.4070299 112.39,43.03 C112.01291,43.5569407 111.397634,43.8608268 110.75,43.84 C110.121695,43.8743043 109.510375,43.6290439 109.08,43.17 L109.08,45.97 L108.08,45.97 L108.08,37.97 L109,37.97 L109.05,38.61 C109.454949,38.1019771 110.081425,37.8223003 110.73,37.86 C111.378747,37.8383509 111.997651,38.1328898 112.39,38.65 C112.832766,39.2911275 113.047566,40.0622961 113,40.84 L113,40.9 Z M112,40.78 C112.029161,40.2317341 111.881973,39.6885394 111.58,39.23 C111.31607,38.8596862 110.884521,38.6457882 110.43,38.66 C109.860464,38.6426325 109.331536,38.9537668 109.07,39.46 L109.07,42.24 C109.334049,42.7474721 109.868519,43.0556699 110.44,43.03 C110.886068,43.041555 111.30903,42.8319456 111.57,42.47 C111.888287,41.9662458 112.03882,41.3746155 112,40.78 Z" id="Shape" fill="#000000"></path>
            <polygon id="Shape" fill="#000000" points="118.11 38.73 116.11 38.73 116.11 43.73 115.11 43.73 115.11 38.73 113.2 38.73 113.2 37.93 118.05 37.93"></polygon>
            <polygon id="Shape" fill="#000000" points="122.84 37.93 123.84 37.93 123.84 43.74 122.84 43.74 122.84 39.5 120.16 43.74 119.16 43.74 119.16 37.93 120.16 37.93 120.16 42.17"></polygon>
            <path d="M130.34,40.9 C130.373418,41.6574096 130.15929,42.4051031 129.73,43.03 C129.346056,43.5488077 128.735341,43.8504413 128.09,43.84 C127.461695,43.8743043 126.850375,43.6290439 126.42,43.17 L126.42,45.97 L125.42,45.97 L125.42,37.97 L126.32,37.97 L126.32,38.61 C126.7332,38.1070333 127.359811,37.8289514 128.01,37.86 C128.658747,37.8383509 129.277651,38.1328898 129.67,38.65 C130.108579,39.2930808 130.322973,40.0627883 130.28,40.84 L130.34,40.9 Z M129.34,40.78 C129.369161,40.2317341 129.221973,39.6885394 128.92,39.23 C128.657279,38.8582703 128.224916,38.6439684 127.77,38.66 C127.202759,38.6416109 126.676261,38.9536098 126.42,39.46 L126.42,42.24 C126.682162,42.7492756 127.217903,43.058207 127.79,43.03 C128.236068,43.041555 128.65903,42.8319456 128.92,42.47 C129.234149,41.9648133 129.381108,41.3734754 129.34,40.78 Z" id="Shape" fill="#000000"></path>
            <path d="M131.34,40.78 C131.331925,40.2482966 131.444765,39.7217084 131.67,39.24 C131.887709,38.8282031 132.212444,38.4827404 132.61,38.24 C133.018009,37.9877321 133.490423,37.8592076 133.97,37.87 C134.700262,37.8433209 135.404315,38.1440101 135.89,38.69 C136.403529,39.3008336 136.667782,40.0828787 136.63,40.88 L136.63,40.95 C136.637847,41.4752519 136.524944,41.9952882 136.3,42.47 C136.096548,42.9015745 135.773845,43.2659164 135.37,43.52 C134.95155,43.7736417 134.469173,43.9020442 133.98,43.89 C133.252925,43.9150764 132.552585,43.6144067 132.07,43.07 C131.559584,42.4658088 131.298545,41.6898438 131.34,40.9 L131.34,40.78 Z M132.34,40.9 C132.312976,41.4523896 132.471368,41.9979623 132.79,42.45 C133.079987,42.8206335 133.524403,43.0371983 133.995,43.0371983 C134.465597,43.0371983 134.910013,42.8206335 135.2,42.45 C135.51882,41.9572518 135.672894,41.3759736 135.64,40.79 C135.667024,40.2376104 135.508632,39.6920377 135.19,39.24 C134.919743,38.8498569 134.474601,38.6179343 134,38.62 C133.533637,38.6109224 133.092556,38.8314628 132.82,39.21 C132.468948,39.7010812 132.29608,40.2972998 132.33,40.9 L132.34,40.9 Z" id="Shape" fill="#000000"></path>
            <path d="M138,43.74 L138,37.93 L140.27,37.93 C140.88931,37.8912092 141.506828,38.0299772 142.05,38.33 C142.45469,38.5871707 142.691126,39.0409757 142.67,39.52 C142.671445,39.7829471 142.587195,40.0392085 142.43,40.25 C142.245139,40.4846399 141.994432,40.6587423 141.71,40.75 C142.038143,40.8128977 142.336678,40.9814817 142.56,41.23 C142.771833,41.465734 142.886214,41.7731323 142.88,42.09 C142.902587,42.5703326 142.680549,43.0294628 142.29,43.31 C141.797213,43.6279056 141.215155,43.7786796 140.63,43.74 L138,43.74 Z M139,40.39 L140.28,40.39 C141.21,40.39 141.68,40.12 141.68,39.58 C141.68,39.04 141.24,38.75 140.36,38.73 L139,38.73 L139,40.39 Z M139,41.19 L139,42.94 L140.64,42.94 C140.96651,42.9634623 141.292065,42.8829486 141.57,42.71 C141.774527,42.5579807 141.890594,42.3146156 141.88,42.06 C141.88,41.48 141.46,41.19 140.6,41.19 L139,41.19 Z" id="Shape" fill="#000000"></path>
            <polygon id="Shape" fill="#000000" points="146 41.26 145.27 41.26 145.27 43.74 144.27 43.74 144.27 37.93 145.27 37.93 145.27 40.39 145.92 40.39 147.92 37.93 149.12 37.93 146.82 40.72 149.31 43.72 148 43.72"></polygon>
            <path d="M153.68,43.74 C153.608345,43.5397808 153.561332,43.3315824 153.54,43.12 C153.117105,43.5832885 152.517257,43.8450405 151.89,43.84 C151.376862,43.8595355 150.874635,43.6885646 150.48,43.36 C150.122277,43.0526375 149.920566,42.6015385 149.93,42.13 C149.903633,41.5729065 150.163925,41.0410047 150.62,40.72 C151.19587,40.3477763 151.875526,40.1691036 152.56,40.21 L153.56,40.21 L153.56,39.76 C153.573961,39.4526692 153.462011,39.1529319 153.25,38.93 C152.997625,38.7069354 152.665908,38.5951613 152.33,38.62 C152.011536,38.6083167 151.698294,38.703345 151.44,38.89 C151.219237,39.0331907 151.08426,39.2768998 151.08,39.54 L150.08,39.54 C150.084767,39.2328876 150.194118,38.9365818 150.39,38.7 C150.60837,38.4136342 150.897997,38.1895181 151.23,38.05 C151.597015,37.8952876 151.99172,37.8170271 152.39,37.82 C152.957003,37.7880112 153.51592,37.9660105 153.96,38.32 C154.3471,38.6729474 154.562299,39.1762951 154.55,39.7 L154.55,42.38 C154.532407,42.8132403 154.60388,43.2454838 154.76,43.65 L154.76,43.74 L153.68,43.74 Z M152.04,42.98 C152.349456,42.9796767 152.653227,42.89683 152.92,42.74 C153.182307,42.5964444 153.394978,42.3768006 153.53,42.11 L153.53,40.92 L152.75,40.92 C151.53,40.92 150.92,41.27 150.92,41.99 C150.90876,42.2695902 151.026772,42.5388067 151.24,42.72 C151.455944,42.8913977 151.724321,42.9832108 152,42.98 L152.04,42.98 Z" id="Shape" fill="#000000"></path>
            <path d="M156.05,45.29 L155.48,44.91 C155.802832,44.4933635 155.988057,43.9866163 156.01,43.46 L156.01,42.56 L157.01,42.56 L157.01,43.34 C157.004747,43.7148581 156.915922,44.0838215 156.75,44.42 C156.587995,44.7608025 156.348226,45.0588008 156.05,45.29 Z" id="Shape" fill="#000000"></path>
            <path d="M160.75,40.94 C160.708453,40.1383041 160.90317,39.342049 161.31,38.65 C161.645829,38.1211629 162.23369,37.8063731 162.86,37.82 C163.134129,37.814635 163.406434,37.8656922 163.66,37.97 L163.66,35.49 L164.66,35.49 L164.66,38.01 C164.933876,37.8770826 165.235681,37.8119201 165.54,37.82 C166.169366,37.8048253 166.760926,38.1195656 167.1,38.65 C167.514657,39.37908 167.709167,40.2126945 167.66,41.05 C167.689232,41.7590774 167.493197,42.4592026 167.1,43.05 C166.743987,43.5478383 166.161589,43.8334013 165.55,43.81 C165.244776,43.8154103 164.941741,43.7575272 164.66,43.64 L164.66,45.93 L163.66,45.93 L163.66,43.65 C163.404798,43.7614428 163.128408,43.8160383 162.85,43.81 C162.241118,43.8336596 161.661604,43.5476659 161.31,43.05 C160.901568,42.4399969 160.704817,41.7127203 160.75,40.98 L160.75,40.94 Z M161.75,41.05 C161.717163,41.5671391 161.839003,42.0823487 162.1,42.53 C162.320739,42.8637065 162.700265,43.0572648 163.1,43.04 C163.294729,43.0445 163.488432,43.0105171 163.67,42.94 L163.67,38.73 C163.495908,38.6577831 163.30837,38.6236852 163.12,38.63 C162.702183,38.6227536 162.315701,38.8507777 162.12,39.22 C161.83398,39.7857494 161.70287,40.4171483 161.74,41.05 L161.75,41.05 Z M166.67,40.94 C166.701928,40.349183 166.57045,39.7609915 166.29,39.24 C166.088244,38.8738938 165.70785,38.6418535 165.29,38.63 C165.088045,38.6278778 164.887622,38.6652448 164.7,38.74 L164.7,42.95 C164.893087,43.0153156 165.096247,43.0457896 165.3,43.04 C165.69949,43.045526 166.075094,42.8502122 166.3,42.52 C166.574816,42.0409939 166.700181,41.4907775 166.66,40.94 L166.67,40.94 Z" id="Shape" fill="#000000"></path>
            <path d="M173.85,40.9 C173.887894,41.6579308 173.673363,42.4070299 173.24,43.03 C172.86291,43.5569407 172.247634,43.8608268 171.6,43.84 C170.971695,43.8743043 170.360375,43.6290439 169.93,43.17 L169.93,45.97 L168.93,45.97 L168.93,37.97 L169.84,37.97 L169.84,38.61 C170.2532,38.1070333 170.879811,37.8289514 171.53,37.86 C172.178747,37.8383509 172.797651,38.1328898 173.19,38.65 C173.628579,39.2930808 173.842973,40.0627883 173.8,40.84 L173.85,40.9 Z M172.85,40.78 C172.877321,40.2333232 172.734045,39.6916703 172.44,39.23 C172.17607,38.8596862 171.744521,38.6457882 171.29,38.66 C170.719835,38.6401637 170.189684,38.9520173 169.93,39.46 L169.93,42.24 C170.192162,42.7492756 170.727903,43.058207 171.3,43.03 C171.746068,43.041555 172.16903,42.8319456 172.43,42.47 C172.744149,41.9648133 172.891108,41.3734754 172.85,40.78 Z" id="Shape" fill="#000000"></path>
            <path d="M178.7,43.74 C178.618668,43.5427185 178.571332,43.3330881 178.56,43.12 C178.13327,43.5837901 177.530215,43.8453558 176.9,43.84 C176.386862,43.8595355 175.884635,43.6885646 175.49,43.36 C175.135674,43.0501162 174.93471,42.6006881 174.94,42.13 C174.913633,41.5729065 175.173925,41.0410047 175.63,40.72 C176.222947,40.3358395 176.925498,40.156689 177.63,40.21 L178.63,40.21 L178.63,39.76 C178.648843,39.4519208 178.536188,39.1502966 178.32,38.93 C178.06881,38.7048942 177.7362,38.5928189 177.4,38.62 C177.081734,38.6098341 176.768972,38.704717 176.51,38.89 C176.289237,39.0331907 176.15426,39.2768998 176.15,39.54 L175.15,39.54 C175.154767,39.2328876 175.264118,38.9365818 175.46,38.7 C175.682998,38.4182708 175.971324,38.1951611 176.3,38.05 C176.667015,37.8952876 177.06172,37.8170271 177.46,37.82 C178.027243,37.7860989 178.58683,37.9643112 179.03,38.32 C179.416499,38.6742067 179.634567,39.1757645 179.63,39.7 L179.63,42.38 C179.609785,42.8125196 179.677833,43.2446272 179.83,43.65 L179.83,43.74 L178.7,43.74 Z M177.05,42.98 C177.362594,42.9795364 177.669554,42.8967607 177.94,42.74 C178.19977,42.5963648 178.4092,42.376464 178.54,42.11 L178.54,40.92 L177.76,40.92 C176.55,40.92 175.94,41.27 175.94,41.99 C175.924768,42.2681997 176.039243,42.5377681 176.25,42.72 C176.477411,42.8987665 176.760943,42.9909143 177.05,42.98 Z" id="Shape" fill="#000000"></path>
            <polygon id="Shape" fill="#000000" points="183 40.05 184.29 37.93 185.45 37.93 183.55 40.8 185.55 43.74 184.4 43.74 183.06 41.56 181.72 43.74 180.56 43.74 182.56 40.8 180.66 37.93 181.81 37.93"></polygon>
            <polygon id="Shape" fill="#000000" points="190.86 38.73 188.91 38.73 188.91 43.73 187.91 43.73 187.91 38.73 186 38.73 186 37.93 190.85 37.93"></polygon>
        </g>
    </g>
</svg>