<?xml version="1.0" encoding="UTF-8"?>
<svg width="211px" height="51px" viewBox="0 0 211 51" version="1.1" xmlns="http://www.w3.org/2000/svg" xmlns:xlink="http://www.w3.org/1999/xlink">
    <!-- Generator: Sketch 50.2 (55047) - http://www.bohemiancoding.com/sketch -->
    <title>reg-1-na</title>
    <desc>Created with Sketch.</desc>
    <defs></defs>
    <g id="Page-1" stroke="none" stroke-width="1" fill="none" fill-rule="evenodd">
        <g id="reg-1-na" fill-rule="nonzero">
            <rect id="Rectangle-path" fill="#8BA3BE" x="0" y="0.83" width="211" height="50.13"></rect>
            <polygon id="Shape" fill="#000000" points="8.24 22.19 10.8 28.62 13.35 22.24 14.69 22.24 14.69 30.06 13.69 30.06 13.69 27.06 13.79 23.77 11.22 30.1 10.4 30.1 7.84 23.79 7.94 27.06 7.94 30.06 6.94 30.06 6.94 22.24"></polygon>
            <path d="M18.77,30.12 C18.0450017,30.1463813 17.3430873,29.8627061 16.84,29.34 C16.3293402,28.774984 16.0632683,28.0307019 16.1,27.27 L16.1,27.09 C16.0900459,26.5548982 16.2029395,26.0246406 16.43,25.54 C16.6332769,25.1056692 16.9558064,24.7380549 17.36,24.48 C17.7377891,24.224343 18.1838392,24.0884371 18.64,24.09 C19.3143238,24.0523253 19.9680301,24.3293194 20.41,24.84 C20.8592643,25.4595161 21.0785103,26.2162688 21.03,26.98 L21.03,27.39 L17.1,27.39 C17.0881402,27.899369 17.2663892,28.394901 17.6,28.78 C17.9096808,29.1264544 18.355424,29.3200969 18.82,29.31 C19.1314365,29.3216667 19.4398671,29.2454254 19.71,29.09 C19.9620143,28.9484773 20.18036,28.7540131 20.35,28.52 L20.96,29 C20.4853441,29.7408985 19.6485456,30.1688502 18.77,30.12 Z M18.64,24.91 C18.2595593,24.9092106 17.8964449,25.0689809 17.64,25.35 C17.3446955,25.6951354 17.1692566,26.1267151 17.14,26.58 L20.0000198,26.58 L20,26.5 C20.0019676,26.074452 19.8571656,25.6612364 19.59,25.33 C19.3508786,25.0566005 19.0031466,24.9028663 18.64,24.91 Z" id="Shape" fill="#000000"></path>
            <path d="M24.51,29.31 C24.8479483,29.3157841 25.1771623,29.2025062 25.44,28.99 C25.6941538,28.7939795 25.8538999,28.4999015 25.88,28.18 L26.82,28.18 C26.802396,28.5231799 26.6841466,28.8535827 26.48,29.13 C26.262138,29.4380421 25.9696802,29.6857711 25.63,29.85 C25.2841261,30.0296008 24.8997179,30.1222706 24.51,30.12 C23.7960306,30.1549749 23.1046846,29.8644625 22.63,29.33 C22.1338779,28.7194563 21.8841715,27.9453665 21.93,27.16 L21.93,26.99 C21.9204996,26.4699448 22.0263713,25.9542472 22.24,25.48 C22.4299211,25.0651206 22.7399544,24.7167686 23.13,24.48 C23.5459978,24.2292179 24.0243414,24.1009663 24.51,24.11 C25.1057403,24.0912667 25.6858375,24.3025366 26.13,24.7 C26.5591616,25.0902782 26.8087184,25.6400263 26.82,26.22 L25.88,26.22 C25.8629684,25.8679634 25.7128423,25.5355414 25.46,25.29 C25.201725,25.0517894 24.8612807,24.9227789 24.51,24.93 C24.0544043,24.9039044 23.6157235,25.1063725 23.34,25.47 C23.0310726,25.9366056 22.8835466,26.4915843 22.92,27.05 L22.92,27.24 C22.8878839,27.7871684 23.0315439,28.3302733 23.33,28.79 C23.6153435,29.1449417 24.0555016,29.3389097 24.51,29.31 Z" id="Shape" fill="#000000"></path>
            <polygon id="Shape" fill="#000000" points="32.26 25.01 30.26 25.01 30.26 30.01 29.26 30.01 29.26 25.01 27.4 25.01 27.4 24.2 32.26 24.2"></polygon>
            <path d="M32.74,27.05 C32.7292124,26.5201352 32.8458144,25.9954264 33.08,25.52 C33.2804106,25.0838028 33.603583,24.7154558 34.01,24.46 C34.4241377,24.213466 34.8980575,24.085473 35.38,24.09 C36.1118784,24.0658308 36.8161992,24.3703028 37.3,24.92 C37.8119453,25.5272587 38.0730194,26.3069045 38.03,27.1 L38.03,27.17 C38.0375144,27.6941416 37.9282015,28.2133776 37.71,28.69 C37.5065479,29.1215745 37.1838451,29.4859164 36.78,29.74 C36.3619418,29.9956046 35.8799511,30.1273719 35.39,30.12 C34.6621236,30.1493815 33.9600155,29.8479529 33.48,29.3 C32.9671156,28.6927277 32.7027787,27.9140054 32.74,27.12 L32.74,27.05 Z M33.74,27.17 C33.7114162,27.7225715 33.8699533,28.2686438 34.19,28.72 C34.4688993,29.1017251 34.9174017,29.3222388 35.39,29.31 C35.8633632,29.3257637 36.3134249,29.1044833 36.59,28.72 C36.9177025,28.2271205 37.075693,27.6408005 37.04,27.05 C37.0639876,26.497971 36.9058745,25.9533593 36.59,25.5 C36.3057058,25.1193576 35.8549771,24.8995808 35.38,24.91 C34.9109029,24.9010593 34.4668627,25.1212137 34.19,25.5 C33.8595605,25.9916367 33.7013162,26.5788989 33.74,27.17 Z" id="Shape" fill="#000000"></path>
            <path d="M46.91,27.17 C46.9493718,27.9312147 46.7348075,28.6839486 46.3,29.31 C45.9229096,29.8369407 45.3076341,30.1408268 44.66,30.12 C44.0346549,30.1540879 43.426481,29.9086201 43,29.45 L43,32.25 L42,32.25 L42,24.25 L42.91,24.25 L42.91,24.9 C43.3149163,24.3852385 43.9462093,24.1013435 44.6,24.14 C45.2452617,24.121624 45.85972,24.4158192 46.25,24.93 C46.6928059,25.5748702 46.9075011,26.349181 46.86,27.13 L46.91,27.17 Z M45.91,27.06 C45.9405884,26.5115835 45.7932809,25.9679486 45.49,25.51 C45.2272791,25.1382703 44.7949157,24.9239684 44.34,24.94 C43.771463,24.9165157 43.2424138,25.2300264 42.99,25.74 L42.99,28.51 C43.2477934,29.0197602 43.7791994,29.332352 44.35,29.31 C44.801819,29.324453 45.2304709,29.110127 45.49,28.74 C45.8068688,28.2393395 45.9573714,27.6513292 45.92,27.06 L45.91,27.06 Z" id="Shape" fill="#000000"></path>
            <path d="M50.59,30.12 C49.8650017,30.1463813 49.1630873,29.8627061 48.66,29.34 C48.1493402,28.774984 47.8832683,28.0307019 47.92,27.27 L47.92,27.09 C47.9100459,26.5548982 48.0229395,26.0246406 48.25,25.54 C48.4532769,25.1056692 48.7758064,24.7380549 49.18,24.48 C49.5577891,24.224343 50.0038392,24.0884371 50.46,24.09 C51.1314305,24.0523949 51.7820705,24.3296562 52.22,24.84 C52.6774857,25.455876 52.9008143,26.2144843 52.85,26.98 L52.85,27.39 L48.92,27.39 C48.9081402,27.899369 49.0863892,28.394901 49.42,28.78 C49.7296808,29.1264544 50.175424,29.3200969 50.64,29.31 C50.9514365,29.3216667 51.2598671,29.2454254 51.53,29.09 C51.7792637,28.9446545 51.9968799,28.7508401 52.17,28.52 L52.78,29 C52.3053441,29.7408985 51.4685456,30.1688502 50.59,30.12 Z M50.46,24.91 C50.0790324,24.9066707 49.7149284,25.0668765 49.46,25.35 C49.1709896,25.7111231 49.009288,26.1575601 49,26.62 L51.91,26.62 L51.91,26.54 C51.9072282,26.1152607 51.762958,25.703563 51.5,25.37 C51.2492807,25.0559968 50.8609929,24.8842541 50.46,24.91 Z" id="Shape" fill="#000000"></path>
            <path d="M57.59,30.01 C57.5132692,29.8147567 57.4660836,29.6091623 57.45,29.4 C57.027105,29.8632885 56.4272568,30.1250405 55.8,30.12 C55.284376,30.1447542 54.7791506,29.9691794 54.39,29.63 C54.0262056,29.3263354 53.8201613,28.8737739 53.83,28.4 C53.8092028,27.8440726 54.0682636,27.3146875 54.52,26.99 C55.1169938,26.6159724 55.8172277,26.4409139 56.52,26.49 L57.52,26.49 L57.52,26.03 C57.5351428,25.7224844 57.4230244,25.4222965 57.21,25.2 C56.9559385,24.9798671 56.6254761,24.8685156 56.29,24.89 C55.9717344,24.8798341 55.6589721,24.974717 55.4,25.16 C55.1805563,25.304417 55.0459991,25.5473675 55.04,25.81 L54.04,25.81 C54.0493249,25.503756 54.1581473,25.2088826 54.35,24.97 C54.5736028,24.691341 54.8619866,24.47162 55.19,24.33 C55.5548373,24.1672913 55.9505511,24.0854195 56.35,24.09 C56.9219201,24.0563743 57.4856707,24.2383444 57.93,24.6 C58.3170998,24.9529474 58.5322991,25.4562951 58.52,25.98 L58.52,28.62 C58.5047526,29.0554975 58.5726298,29.4899115 58.72,29.9 L58.72,29.98 L57.59,30.01 Z M55.94,29.26 C56.2534391,29.2560324 56.5603408,29.1698241 56.83,29.01 C57.0890628,28.870036 57.2986028,28.6535114 57.43,28.39 L57.43,27.19 L56.65,27.19 C55.44,27.19 54.83,27.55 54.83,28.26 C54.8132107,28.5384704 54.9279662,28.808701 55.14,28.99 C55.3637649,29.1764372 55.6490223,29.2727116 55.94,29.26 Z" id="Shape" fill="#000000"></path>
            <path d="M64.75,24.2 L64.75,30.01 L63.75,30.01 L63.75,25.01 L61.75,25.01 L61.64,27.19 C61.6361618,27.9329811 61.4616734,28.6651478 61.13,29.33 C60.8500883,29.7620594 60.3645515,30.0162076 59.85,30 L59.45,30 L59.45,29.13 L59.73,29.13 C60.051761,29.0938449 60.3240963,28.8759767 60.43,28.57 C60.613192,27.9637169 60.7042089,27.333341 60.7,26.7 L60.8,24.21 L64.75,24.2 Z" id="Shape" fill="#000000"></path>
            <polygon id="Shape" fill="#000000" points="70.1 24.2 71.1 24.2 71.1 30.01 70.1 30.01 70.1 25.77 67.42 30.01 66.42 30.01 66.42 24.2 67.42 24.2 67.42 28.44"></polygon>
            <path d="M75.89,25.79 C75.8955401,25.5364438 75.7805234,25.2952797 75.58,25.14 C75.3275266,24.967602 75.0252593,24.8832483 74.72,24.9 C74.4064992,24.8909987 74.0994012,24.9898348 73.85,25.18 C73.6333978,25.3224087 73.4992235,25.5609408 73.49,25.82 L72.49,25.82 C72.4881022,25.3269696 72.7270221,24.8640623 73.13,24.58 C73.5885056,24.2484894 74.144572,24.0795579 74.71,24.1 C75.2739522,24.0679476 75.8327558,24.2225851 76.3,24.54 C76.683593,24.8378997 76.8966121,25.3050468 76.87,25.79 C76.8688212,26.0478819 76.7885415,26.2991922 76.64,26.51 C76.463027,26.7401374 76.2284661,26.9195075 75.96,27.03 C76.5713321,27.1858676 76.9890445,27.7497793 76.96,28.38 C76.9746667,28.879513 76.7428694,29.3543236 76.34,29.65 C75.8554462,29.9803845 75.2755935,30.1420404 74.69,30.11 C74.1006084,30.1363601 73.5194712,29.9637799 73.04,29.62 C72.6096037,29.316494 72.3613961,28.8163182 72.38,28.29 L73.38,28.29 C73.3831126,28.5799819 73.5242511,28.8511164 73.76,29.02 C74.0284697,29.228152 74.3603748,29.3376101 74.7,29.33 C75.0283172,29.3461335 75.3524722,29.251001 75.62,29.06 C75.8430659,28.9061474 75.9744217,28.6509418 75.97,28.38 C75.9933939,28.1133174 75.8851362,27.8520058 75.68,27.68 C75.404527,27.5204855 75.0875158,27.447329 74.77,27.47 L73.77,27.47 L73.77,26.62 L74.85,26.62 C75.5433333,26.62 75.89,26.3433333 75.89,25.79 Z" id="Shape" fill="#000000"></path>
            <path d="M81.87,30.01 C81.7884601,29.8162761 81.7410933,29.6098919 81.73,29.4 C81.3032696,29.8637901 80.7002154,30.1253558 80.07,30.12 C79.554376,30.1447542 79.0491506,29.9691794 78.66,29.63 C78.3022768,29.3226375 78.1005659,28.8715385 78.11,28.4 C78.0892028,27.8440726 78.3482636,27.3146875 78.8,26.99 C79.3789639,26.6257094 80.0570791,26.4509374 80.74,26.49 L81.74,26.49 L81.74,26.03 C81.7551428,25.7224844 81.6430244,25.4222965 81.43,25.2 C81.1759385,24.9798671 80.8454761,24.8685156 80.51,24.89 C80.1917344,24.8798341 79.8789721,24.974717 79.62,25.16 C79.4005563,25.304417 79.2659991,25.5473675 79.26,25.81 L78.26,25.81 C78.2647669,25.5028876 78.3741179,25.2065818 78.57,24.97 C78.7912251,24.6889143 79.080278,24.4686836 79.41,24.33 C79.7748373,24.1672913 80.1705511,24.0854195 80.57,24.09 C81.138919,24.0559538 81.6996951,24.2381167 82.14,24.6 C82.5304607,24.9505496 82.7463547,25.4555221 82.73,25.98 L82.73,28.62 C82.7124485,29.0564944 82.783898,29.4919957 82.94,29.9 L82.94,29.98 L81.87,30.01 Z M80.22,29.26 C80.5303113,29.2561678 80.8340223,29.1698863 81.1,29.01 C81.3619867,28.8706231 81.5749012,28.6542182 81.71,28.39 L81.71,27.19 L80.93,27.19 C79.71,27.19 79.11,27.55 79.11,28.26 C79.0932107,28.5384704 79.2079662,28.808701 79.42,28.99 C79.6437649,29.1764372 79.9290223,29.2727116 80.22,29.26 Z" id="Shape" fill="#000000"></path>
            <polygon id="Shape" fill="#000000" points="84.35 24.2 85.35 24.2 85.35 29.2 88 29.2 88 24.2 89 24.2 89 29.2 89.69 29.2 89.59 31.74 88.7 31.74 88.7 30.01 84.33 30.01"></polygon>
            <polygon id="Shape" fill="#000000" points="94.54 24.2 95.54 24.2 95.54 30.01 94.54 30.01 94.54 25.77 91.86 30.01 90.86 30.01 90.86 24.2 91.86 24.2 91.86 28.44"></polygon>
            <polygon id="Shape" fill="#000000" points="100.89 24.2 101.89 24.2 101.89 30.01 100.89 30.01 100.89 25.77 98.21 30.01 97.21 30.01 97.21 24.2 98.21 24.2 98.21 28.44"></polygon>
            <polygon id="Shape" fill="#000000" points="110.52 25.01 108.52 25.01 108.52 30.01 107.52 30.01 107.52 25.01 105.61 25.01 105.61 24.2 110.47 24.2"></polygon>
            <path d="M111,27.05 C110.989212,26.5201352 111.105814,25.9954264 111.34,25.52 C111.540411,25.0838028 111.863583,24.7154558 112.27,24.46 C112.684138,24.213466 113.158058,24.085473 113.64,24.09 C114.371878,24.0658308 115.076199,24.3703028 115.56,24.92 C116.071945,25.5272587 116.333019,26.3069045 116.29,27.1 L116.29,27.17 C116.297514,27.6941416 116.188202,28.2133776 115.97,28.69 C115.766548,29.1215745 115.443845,29.4859164 115.04,29.74 C114.621507,29.9945967 114.139813,30.1262829 113.65,30.12 C112.919738,30.1466791 112.215685,29.8459899 111.73,29.3 C111.219833,28.6917437 110.959001,27.9128208 111,27.12 L111,27.05 Z M112,27.17 C111.971416,27.7225715 112.129953,28.2686438 112.45,28.72 C112.737965,29.0903919 113.180837,29.3070477 113.65,29.3070477 C114.119163,29.3070477 114.562035,29.0903919 114.85,28.72 C115.177703,28.2271205 115.335693,27.6408005 115.3,27.05 C115.325684,26.4962627 115.163591,25.9500816 114.84,25.5 C114.554068,25.1298377 114.112736,24.9130791 113.645,24.9130791 C113.177264,24.9130791 112.735932,25.1298377 112.45,25.5 C112.11956,25.9916367 111.961316,26.5788989 112,27.17 Z" id="Shape" fill="#000000"></path>
            <path d="M117.63,30.01 L117.63,24.2 L119.89,24.2 C120.513487,24.1640029 121.134341,24.3062097 121.68,24.61 C122.086282,24.8657061 122.323239,25.3205098 122.3,25.8 C122.297856,26.0609178 122.210015,26.3138987 122.05,26.52 C121.869524,26.7548212 121.621902,26.9292033 121.34,27.02 C121.666416,27.0875523 121.963584,27.2553647 122.19,27.5 C122.397349,27.7377512 122.50797,28.0446339 122.5,28.36 C122.530219,28.8423014 122.311337,29.3064811 121.92,29.59 C121.4197,29.8982394 120.836596,30.0448885 120.25,30.01 L117.63,30.01 Z M118.63,26.67 L119.92,26.67 C120.85,26.67 121.31,26.39 121.31,25.85 C121.31,25.31 120.87,25.02 119.99,25.01 L118.63,25.01 L118.63,26.67 Z M118.63,27.46 L118.63,29.21 L120.28,29.21 C120.606688,29.2355843 120.932897,29.1549091 121.21,28.98 C121.414527,28.8279807 121.530594,28.5846156 121.52,28.33 C121.52,27.75 121.09,27.46 120.24,27.46 L118.63,27.46 Z" id="Shape" fill="#000000"></path>
            <path d="M127.41,30.01 C127.32846,29.8162761 127.281093,29.6098919 127.27,29.4 C126.844774,29.8659008 126.240729,30.1278963 125.61,30.12 C125.094376,30.1447542 124.589151,29.9691794 124.2,29.63 C123.842277,29.3226375 123.640566,28.8715385 123.65,28.4 C123.629203,27.8440726 123.888264,27.3146875 124.34,26.99 C124.922059,26.6243042 125.603789,26.4495017 126.29,26.49 L127.29,26.49 L127.29,26.03 C127.305143,25.7224844 127.193024,25.4222965 126.98,25.2 C126.725938,24.9798671 126.395476,24.8685156 126.06,24.89 C125.741734,24.8798341 125.428972,24.974717 125.17,25.16 C124.950556,25.304417 124.815999,25.5473675 124.81,25.81 L123.81,25.81 C123.819325,25.503756 123.928147,25.2088826 124.12,24.97 C124.343603,24.691341 124.631987,24.47162 124.96,24.33 C125.324837,24.1672913 125.720551,24.0854195 126.12,24.09 C126.69192,24.0563743 127.255671,24.2383444 127.7,24.6 C128.0871,24.9529474 128.302299,25.4562951 128.29,25.98 L128.29,28.62 C128.269815,29.0557801 128.337841,29.4911487 128.49,29.9 L128.49,29.98 L127.41,30.01 Z M125.76,29.26 C126.073439,29.2560324 126.380341,29.1698241 126.65,29.01 C126.909063,28.870036 127.118603,28.6535114 127.25,28.39 L127.25,27.19 L126.47,27.19 C125.26,27.19 124.65,27.55 124.65,28.26 C124.633211,28.5384704 124.747966,28.808701 124.96,28.99 C125.183765,29.1764372 125.469022,29.2727116 125.76,29.26 Z" id="Shape" fill="#000000"></path>
            <path d="M134.71,27.17 C134.747812,27.9295754 134.537189,28.6807988 134.11,29.31 C133.723996,29.8317159 133.108844,30.1336998 132.46,30.12 C131.834655,30.1540879 131.226481,29.9086201 130.8,29.45 L130.8,32.25 L129.8,32.25 L129.8,24.25 L130.71,24.25 L130.71,24.9 C131.114916,24.3852385 131.746209,24.1013435 132.4,24.14 C133.045262,24.121624 133.65972,24.4158192 134.05,24.93 C134.492806,25.5748702 134.707501,26.349181 134.66,27.13 L134.71,27.17 Z M133.71,27.06 C133.740588,26.5115835 133.593281,25.9679486 133.29,25.51 C133.027279,25.1382703 132.594916,24.9239684 132.14,24.94 C131.571463,24.9165157 131.042414,25.2300264 130.79,25.74 L130.79,28.51 C131.049684,29.0179827 131.579835,29.3298363 132.15,29.31 C132.601819,29.324453 133.030471,29.110127 133.29,28.74 C133.606869,28.2393395 133.757371,27.6513292 133.72,27.06 L133.71,27.06 Z" id="Shape" fill="#000000"></path>
            <path d="M135.71,27.05 C135.699212,26.5201352 135.815814,25.9954264 136.05,25.52 C136.250411,25.0838028 136.573583,24.7154558 136.98,24.46 C137.394138,24.213466 137.868058,24.085473 138.35,24.09 C139.081878,24.0658308 139.786199,24.3703028 140.27,24.92 C140.781945,25.5272587 141.043019,26.3069045 141,27.1 L141,27.17 C141.007514,27.6941416 140.898202,28.2133776 140.68,28.69 C140.476548,29.1215745 140.153845,29.4859164 139.75,29.74 C139.331942,29.9956046 138.849951,30.1273719 138.36,30.12 C137.632124,30.1493815 136.930016,29.8479529 136.45,29.3 C135.937116,28.6927277 135.672779,27.9140054 135.71,27.12 L135.71,27.05 Z M136.71,27.17 C136.681416,27.7225715 136.839953,28.2686438 137.16,28.72 C137.438899,29.1017251 137.887402,29.3222388 138.36,29.31 C138.833363,29.3257637 139.283425,29.1044833 139.56,28.72 C139.887703,28.2271205 140.045693,27.6408005 140.01,27.05 C140.033988,26.497971 139.875874,25.9533593 139.56,25.5 C139.275706,25.1193576 138.824977,24.8995808 138.35,24.91 C137.880903,24.9010593 137.436863,25.1212137 137.16,25.5 C136.82956,25.9916367 136.671316,26.5788989 136.71,27.17 Z" id="Shape" fill="#000000"></path>
            <path d="M142.34,30.01 L142.34,24.2 L144.61,24.2 C145.230186,24.1653653 145.847458,24.3075459 146.39,24.61 C146.796282,24.8657061 147.033239,25.3205098 147.01,25.8 C147.01147,26.0598806 146.927104,26.3129773 146.77,26.52 C146.585564,26.7550908 146.334706,26.929298 146.05,27.02 C146.376416,27.0875523 146.673584,27.2553647 146.9,27.5 C147.11012,27.7367669 147.224242,28.0434704 147.22,28.36 C147.246051,28.8438055 147.023627,29.3075035 146.63,29.59 C146.133312,29.8980562 145.553428,30.0447739 144.97,30.01 L142.34,30.01 Z M143.34,26.67 L144.63,26.67 C145.56,26.67 146.02,26.39 146.02,25.85 C146.02,25.31 145.58,25.02 144.7,25.01 L143.34,25.01 L143.34,26.67 Z M143.34,27.46 L143.34,29.21 L145,29.21 C145.326688,29.2355843 145.652897,29.1549091 145.93,28.98 C146.137398,28.8303591 146.254249,28.5853496 146.24,28.33 C146.24,27.75 145.81,27.46 144.96,27.46 L143.34,27.46 Z" id="Shape" fill="#000000"></path>
        </g>
    </g>
</svg>