<?xml version="1.0" encoding="UTF-8"?>
<svg width="211px" height="79px" viewBox="0 0 211 79" version="1.1" xmlns="http://www.w3.org/2000/svg" xmlns:xlink="http://www.w3.org/1999/xlink">
    <!-- Generator: Sketch 50.2 (55047) - http://www.bohemiancoding.com/sketch -->
    <title>reg-3-na</title>
    <desc>Created with Sketch.</desc>
    <defs></defs>
    <g id="Page-1" stroke="none" stroke-width="1" fill="none" fill-rule="evenodd">
        <g id="reg-3-na" fill-rule="nonzero">
            <rect id="Rectangle-path" fill="#E8EDF2" x="0" y="0.12" width="211" height="78"></rect>
            <path d="M11.66,20.9 C11.6978559,21.6610419 11.4834283,22.4132961 11.05,23.04 C10.6729096,23.5669407 10.0576341,23.8708268 9.41,23.85 C8.78557983,23.878593 8.17962951,23.6340227 7.75,23.18 L7.75,25.98 L6.75,25.98 L6.75,17.93 L7.66,17.93 L7.66,18.57 C8.06494884,18.0619771 8.69142499,17.7823003 9.34,17.82 C9.98874652,17.7983509 10.607651,18.0928898 11,18.61 C11.4428059,19.2548702 11.6575011,20.029181 11.61,20.81 L11.66,20.9 Z M10.66,20.79 C10.6906157,20.238446 10.5433954,19.6916279 10.24,19.23 C9.97384596,18.8634673 9.54267218,18.6535044 9.09,18.67 C8.52146302,18.6465157 7.99241376,18.9600264 7.74,19.47 L7.74,22.24 C7.99779344,22.7497602 8.52919939,23.062352 9.1,23.04 C9.55141804,23.0526327 9.97925531,22.838714 10.24,22.47 C10.5568688,21.9693395 10.7073714,21.3813292 10.67,20.79 L10.66,20.79 Z" id="Shape" fill="#404040"></path>
            <path d="M16.51,23.74 C16.4332692,23.5447567 16.3860836,23.3391623 16.37,23.13 C15.947105,23.5932885 15.3472568,23.8550405 14.72,23.85 C14.204376,23.8747542 13.6991506,23.6991794 13.31,23.36 C12.9487348,23.0552913 12.7462265,22.6024089 12.76,22.13 C12.7336326,21.5729065 12.9939249,21.0410047 13.45,20.72 C14.0284273,20.354466 14.7069479,20.1795896 15.39,20.22 L16.39,20.22 L16.39,19.76 C16.403705,19.450821 16.2877099,19.1499588 16.07,18.93 C15.8201196,18.7094903 15.4925298,18.5978937 15.16,18.62 C14.838444,18.6083665 14.5220513,18.7032843 14.26,18.89 C14.0405563,19.034417 13.9059991,19.2773675 13.9,19.54 L12.9,19.54 C12.9050072,19.2346466 13.0104378,18.939441 13.2,18.7 C13.4236028,18.421341 13.7119866,18.20162 14.04,18.06 C14.4048373,17.8972913 14.8005511,17.8154195 15.2,17.82 C15.7700266,17.7883448 16.3319616,17.9661724 16.78,18.32 C17.1654162,18.6783276 17.3799862,19.1838398 17.37,19.71 L17.37,22.38 C17.3547526,22.8154975 17.4226298,23.2499115 17.57,23.66 L17.57,23.74 L16.51,23.74 Z M14.86,22.98 C15.1725939,22.9795364 15.4795536,22.8967607 15.75,22.74 C16.0123074,22.5964444 16.2249784,22.3768006 16.36,22.11 L16.36,20.92 L15.58,20.92 C14.36,20.92 13.75,21.28 13.75,21.99 C13.7332107,22.2684704 13.8479662,22.538701 14.06,22.72 C14.2861209,22.9011705 14.570573,22.9936175 14.86,22.98 Z" id="Shape" fill="#404040"></path>
            <path d="M21.46,18.26 C22.1242355,18.2347948 22.7653574,18.5058978 23.21,19 C23.6683724,19.535456 23.9045143,20.2259921 23.87,20.93 L23.87,21.02 C23.8775782,21.5280665 23.7680837,22.0310572 23.55,22.49 C23.3526806,22.9062903 23.0358915,23.2544102 22.64,23.49 C22.2291824,23.7346536 21.7580574,23.8593631 21.28,23.85 C20.5661911,23.8792237 19.8754329,23.5941489 19.39,23.07 C18.8939041,22.4863186 18.6398781,21.7349741 18.68,20.97 L18.68,20.49 C18.6269856,19.4764463 18.8590967,18.4683218 19.35,17.58 C19.7942416,16.8713151 20.5237294,16.3898531 21.35,16.26 C21.7016473,16.216191 22.0413456,16.1040905 22.35,15.93 C22.5191981,15.8073835 22.6165907,15.6088525 22.61,15.4 L23.43,15.4 C23.4499898,15.7751766 23.3405554,16.1458416 23.12,16.45 C22.8564879,16.7350519 22.503829,16.9219611 22.12,16.98 L21.38,17.15 C20.3572544,17.2910257 19.5684263,18.121371 19.48,19.15 C19.9634412,18.5586329 20.6968035,18.2289902 21.46,18.26 Z M21.26,19.08 C20.8194085,19.0610654 20.3935921,19.2409361 20.1,19.57 C19.79439,19.9550778 19.6413138,20.4392256 19.67,20.93 L19.67,21.02 C19.6441945,21.5490031 19.7993867,22.0710132 20.11,22.5 C20.4025788,22.841856 20.8300357,23.0386509 21.28,23.0386509 C21.7299643,23.0386509 22.1574212,22.841856 22.45,22.5 C22.7647335,22.0244334 22.9157065,21.4591624 22.88,20.89 C22.901009,20.4138575 22.7441752,19.9469204 22.44,19.58 C22.1456608,19.2391241 21.7096387,19.054369 21.26,19.08 Z" id="Shape" fill="#404040"></path>
            <path d="M24.72,20.78 C24.7140933,20.2506321 24.8304464,19.7270434 25.06,19.25 C25.2604106,18.8138028 25.583583,18.4454558 25.99,18.19 C26.4041377,17.943466 26.8780575,17.815473 27.36,17.82 C28.0894795,17.7975047 28.791834,18.0974686 29.28,18.64 C29.7899328,19.2523049 30.0505633,20.0341964 30.01,20.83 L30.01,20.9 C30.0224144,21.4246048 29.9128724,21.9449293 29.69,22.42 C29.4865479,22.8515745 29.1638451,23.2159164 28.76,23.47 C28.3419418,23.7256046 27.8599511,23.8573719 27.37,23.85 C26.6434533,23.8722769 25.9442507,23.5720957 25.46,23.03 C24.9479904,22.4222337 24.6837734,21.6438648 24.72,20.85 L24.72,20.78 Z M25.72,20.9 C25.6929758,21.4523896 25.8513678,21.9979623 26.17,22.45 C26.4488993,22.8317251 26.8974017,23.0522388 27.37,23.04 C27.8460251,23.0571667 28.2981183,22.8311201 28.57,22.44 C28.8976178,21.9508215 29.0557014,21.3676687 29.02,20.78 C29.0454924,20.2277913 28.8872416,19.6827053 28.57,19.23 C28.2857058,18.8493576 27.8349771,18.6295808 27.36,18.64 C26.8923386,18.6270321 26.4479077,18.8436455 26.17,19.22 C25.839495,19.7153496 25.681347,20.3057688 25.72,20.9 Z" id="Shape" fill="#404040"></path>
            <polygon id="Shape" fill="#404040" points="35.46 18.74 33.51 18.74 33.51 23.74 32.51 23.74 32.51 18.74 30.6 18.74 30.6 17.93 35.46 17.93"></polygon>
            <path d="M37.51,19.93 L39,19.93 C39.5661797,19.9061182 40.1213853,20.0911867 40.56,20.45 C40.948656,20.7968272 41.1614823,21.2995377 41.14,21.82 C41.1593456,22.3479292 40.9431904,22.857176 40.55,23.21 C40.1065091,23.5821233 39.5380667,23.7716042 38.96,23.74 L36.5,23.74 L36.5,17.93 L37.5,17.93 L37.51,19.93 Z M37.51,20.74 L37.51,22.93 L39,22.93 C39.313435,22.9485762 39.6218176,22.8445867 39.86,22.64 C40.072728,22.438048 40.1860632,22.1528819 40.17,21.86 C40.1818793,21.5638039 40.0737093,21.2753504 39.87,21.06 C39.6426035,20.847617 39.3410677,20.7327462 39.03,20.74 L37.51,20.74 Z M43.23,23.74 L42.23,23.74 L42.23,17.93 L43.23,17.93 L43.23,23.74 Z" id="Shape" fill="#404040"></path>
            <path d="M44.93,25.3 L44.37,24.91 C44.6858213,24.4902891 44.8671133,23.9847633 44.89,23.46 L44.89,22.56 L45.89,22.56 L45.89,23.34 C45.8870843,23.7195249 45.7945731,24.0929957 45.62,24.43 C45.4556013,24.7664732 45.2201919,25.0632938 44.93,25.3 Z" id="Shape" fill="#404040"></path>
            <path d="M51.75,22.29 L53.1,17.93 L54.17,17.93 L51.83,24.62 C51.47,25.62 50.89,26.07 50.1,26.07 L49.92,26.07 L49.55,26 L49.55,25.2 L49.81,25.2 C50.0890634,25.2167662 50.3660974,25.1431243 50.6,24.99 C50.8278015,24.7964568 50.9916579,24.5384701 51.07,24.25 L51.29,23.66 L49.21,17.91 L50.3,17.91 L51.75,22.29 Z" id="Shape" fill="#404040"></path>
            <path d="M57.33,23.04 C57.6674144,23.0424669 57.995542,22.9295627 58.26,22.72 C58.5104215,22.5208232 58.6692206,22.2284886 58.7,21.91 L59.64,21.91 C59.6139373,22.2530507 59.4927315,22.5820378 59.29,22.86 C59.0736654,23.165604 58.7850952,23.4129499 58.45,23.58 C58.1033015,23.7573847 57.7194421,23.8499223 57.33,23.85 C56.6143655,23.8780493 55.922801,23.5889827 55.44,23.06 C54.9438779,22.4494563 54.6941715,21.6753665 54.74,20.89 L54.74,20.72 C54.7291547,20.1998214 54.8350866,19.6838307 55.05,19.21 C55.2458154,18.7990002 55.5544916,18.4521731 55.94,18.21 C56.3542133,17.9550498 56.8338015,17.8264646 57.32,17.84 C57.918667,17.8217615 58.5017064,18.0328003 58.95,18.43 C59.3811364,18.8188368 59.6311033,19.3694886 59.64,19.95 L58.7,19.95 C58.6833868,19.5957971 58.5290917,19.2620891 58.27,19.02 C58.0005411,18.7672864 57.6387064,18.6370259 57.27,18.66 C56.8154158,18.6391517 56.3790602,18.8405465 56.1,19.2 C55.7910726,19.6666056 55.6435466,20.2215843 55.68,20.78 L55.68,20.97 C55.6464811,21.5187197 55.7940364,22.0632691 56.1,22.52 C56.3944338,22.8918277 56.8581354,23.0878642 57.33,23.04 Z" id="Shape" fill="#404040"></path>
            <path d="M65.52,17.93 L65.52,23.74 L64.52,23.74 L64.52,18.74 L62.52,18.74 L62.4,20.92 C62.4032817,21.6626531 62.2320122,22.3956866 61.9,23.06 C61.6200883,23.4920594 61.1345515,23.7462076 60.62,23.73 L60.22,23.73 L60.22,22.86 L60.5,22.86 C60.8221946,22.8328141 61.0973569,22.6166151 61.2,22.31 C61.3835085,21.7040074 61.4712325,21.0730689 61.46,20.44 L61.57,17.95 L65.52,17.93 Z" id="Shape" fill="#404040"></path>
            <path d="M69,22.29 L70.35,17.93 L71.41,17.93 L69.1,24.62 C68.73,25.62 68.16,26.07 67.37,26.07 L67.18,26.07 L66.81,26 L66.81,25.2 L67.08,25.2 C67.3590634,25.2167662 67.6360974,25.1431243 67.87,24.99 C68.0976141,24.7980845 68.2586384,24.5390454 68.33,24.25 L68.55,23.66 L66.48,17.91 L67.56,17.91 L69,22.29 Z" id="Shape" fill="#404040"></path>
            <polygon id="Shape" fill="#404040" points="76.07 18.75 73.39 18.75 73.39 23.75 72.39 23.75 72.39 17.94 76.07 17.94"></polygon>
            <polygon id="Shape" fill="#404040" points="80.69 17.93 81.69 17.93 81.69 23.74 80.69 23.74 80.69 19.5 78 23.74 77 23.74 77 17.93 78 17.93 78 22.17"></polygon>
            <path d="M83.25,25.3 L82.68,24.91 C83.0028317,24.4933635 83.1880566,23.9866163 83.21,23.46 L83.21,22.56 L84.21,22.56 L84.21,23.34 C84.2058976,23.7182002 84.117052,24.0906685 83.95,24.43 C83.7827009,24.767448 83.5438163,25.0643474 83.25,25.3 Z" id="Shape" fill="#404040"></path>
            <path d="M90.49,23.04 C90.8279483,23.0457841 91.1571623,22.9325062 91.42,22.72 C91.6741538,22.5239795 91.8338999,22.2299015 91.86,21.91 L92.8,21.91 C92.782396,22.2531799 92.6641466,22.5835827 92.46,22.86 C92.242138,23.1680421 91.9496802,23.4157711 91.61,23.58 C90.6038944,24.0814314 89.3886539,23.8707897 88.61,23.06 C88.1138779,22.4494563 87.8641715,21.6753665 87.91,20.89 L87.91,20.72 C87.8991547,20.1998214 88.0050866,19.6838307 88.22,19.21 C88.4099211,18.7951206 88.7199544,18.4467686 89.11,18.21 C89.5242133,17.9550498 90.0038015,17.8264646 90.49,17.84 C91.0857403,17.8212667 91.6658375,18.0325366 92.11,18.43 C92.5411364,18.8188368 92.7911033,19.3694886 92.8,19.95 L91.86,19.95 C91.8429684,19.5979634 91.6928423,19.2655414 91.44,19.02 C91.181725,18.7817894 90.8412807,18.6527789 90.49,18.66 C90.0344043,18.6339044 89.5957235,18.8363725 89.32,19.2 C89.0110726,19.6666056 88.8635466,20.2215843 88.9,20.78 L88.9,20.97 C88.8678839,21.5171684 89.0115439,22.0602733 89.31,22.52 C89.5953435,22.8749417 90.0355016,23.0689097 90.49,23.04 Z" id="Shape" fill="#404040"></path>
            <path d="M94,23.74 L94,17.93 L96.27,17.93 C96.8893101,17.8912092 97.5068277,18.0299772 98.05,18.33 C98.4531243,18.5886042 98.6890541,19.0414373 98.67,19.52 C98.6736921,19.7832957 98.5892103,20.0402612 98.43,20.25 C98.2451392,20.4846399 97.9944317,20.6587423 97.71,20.75 C98.0373866,20.81495 98.335311,20.9831897 98.56,21.23 C98.7701199,21.4667669 98.8842422,21.7734704 98.88,22.09 C98.9041764,22.5734299 98.6821606,23.0362764 98.29,23.32 C97.7933122,23.6280562 97.2134279,23.7747739 96.63,23.74 L94,23.74 Z M95,20.39 L96.28,20.39 C97.21,20.39 97.68,20.12 97.68,19.58 C97.68,19.04 97.24,18.75 96.35,18.74 L95,18.74 L95,20.39 Z M95,21.19 L95,22.94 L96.64,22.94 C96.9663915,22.9620971 97.2915333,22.8816857 97.57,22.71 C97.7773983,22.5603591 97.894249,22.3153496 97.88,22.06 C97.88,21.48 97.45,21.19 96.6,21.19 L95,21.19 Z" id="Shape" fill="#404040"></path>
            <path d="M104.65,17.93 L104.65,23.74 L103.65,23.74 L103.65,21.48 L102.15,21.48 L100.78,23.74 L99.71,23.74 L101.17,21.33 C100.825401,21.2133711 100.52511,20.9933906 100.31,20.7 C100.1082,20.4060906 100.003309,20.0564566 100.01,19.7 C99.9957331,19.2023337 100.21836,18.7273972 100.61,18.42 C101.067386,18.0777063 101.629282,17.9045433 102.2,17.93 L104.65,17.93 Z M101,19.71 C100.99191,19.9711944 101.097745,20.2230086 101.29,20.4 C101.50506,20.5800176 101.779833,20.672798 102.06,20.66 L103.64,20.66 L103.64,18.74 L102.21,18.74 C101.893987,18.7232658 101.582249,18.8189127 101.33,19.01 C101.115299,19.1778639 100.992871,19.437559 101,19.71 Z" id="Shape" fill="#404040"></path>
            <path d="M109.44,19.52 C109.44554,19.2664438 109.330523,19.0252797 109.13,18.87 C108.877527,18.697602 108.575259,18.6132483 108.27,18.63 C107.952987,18.6178382 107.641697,18.7168851 107.39,18.91 C107.177202,19.0546363 107.046959,19.2927956 107.04,19.55 L106.04,19.55 C106.038102,19.0569696 106.277022,18.5940623 106.68,18.31 C107.138506,17.9784894 107.694572,17.8095579 108.26,17.83 C108.824437,17.7933241 109.384716,17.9483699 109.85,18.27 C110.234993,18.5667907 110.448367,19.0347172 110.42,19.52 C110.418821,19.7778819 110.338541,20.0291922 110.19,20.24 C110.010173,20.467256 109.776433,20.6459984 109.51,20.76 C110.121332,20.9158676 110.539045,21.4797793 110.51,22.11 C110.522943,22.6091397 110.291515,23.0831941 109.89,23.38 C109.405446,23.7103845 108.825593,23.8720404 108.24,23.84 C107.650608,23.8663601 107.069471,23.6937799 106.59,23.35 C106.161024,23.0452786 105.913223,22.5459221 105.93,22.02 L106.93,22.02 C106.933113,22.3099819 107.074251,22.5811164 107.31,22.75 C107.87424,23.1218682 108.60576,23.1218682 109.17,22.75 C109.393066,22.5961474 109.524422,22.3409418 109.52,22.07 C109.543394,21.8033174 109.435136,21.5420058 109.23,21.37 C108.954527,21.2104855 108.637516,21.137329 108.32,21.16 L107.32,21.16 L107.32,20.32 L108.4,20.32 C109.093333,20.3266667 109.44,20.06 109.44,19.52 Z" id="Shape" fill="#404040"></path>
            <path d="M115.42,23.74 C115.33846,23.5462761 115.291093,23.3398919 115.28,23.13 C114.852531,23.5927501 114.249961,23.8541058 113.62,23.85 C113.104376,23.8747542 112.599151,23.6991794 112.21,23.36 C111.852277,23.0526375 111.650566,22.6015385 111.66,22.13 C111.633633,21.5729065 111.893925,21.0410047 112.35,20.72 C112.928964,20.3557094 113.607079,20.1809374 114.29,20.22 L115.29,20.22 L115.29,19.76 C115.30635,19.4522981 115.194058,19.1516459 114.98,18.93 C114.710992,18.6942851 114.355631,18.5818749 114,18.62 C113.681734,18.6098341 113.368972,18.704717 113.11,18.89 C112.890556,19.034417 112.755999,19.2773675 112.75,19.54 L111.75,19.54 C111.754767,19.2328876 111.864118,18.9365818 112.06,18.7 C112.277604,18.4152623 112.567718,18.1942234 112.9,18.06 C113.264837,17.8972913 113.660551,17.8154195 114.06,17.82 C114.627003,17.7880112 115.18592,17.9660105 115.63,18.32 C116.019778,18.6752526 116.235228,19.1828385 116.22,19.71 L116.22,22.38 C116.202449,22.8164944 116.273898,23.2519957 116.43,23.66 L116.43,23.74 L115.42,23.74 Z M113.77,22.98 C114.079456,22.9796767 114.383227,22.89683 114.65,22.74 C114.912307,22.5964444 115.124978,22.3768006 115.26,22.11 L115.26,20.92 L114.48,20.92 C113.26,20.92 112.66,21.28 112.66,21.99 C112.643211,22.2684704 112.757966,22.538701 112.97,22.72 C113.194263,22.9045857 113.480068,22.9974721 113.77,22.98 Z" id="Shape" fill="#404040"></path>
            <polygon id="Shape" fill="#404040" points="122.56 23.74 121.56 23.74 121.56 21.26 118.9 21.26 118.9 23.74 117.9 23.74 117.9 17.93 118.9 17.93 118.9 20.45 121.57 20.45 121.57 17.93 122.57 17.93"></polygon>
            <polygon id="Shape" fill="#404040" points="128.9 23.74 127.9 23.74 127.9 21.26 125.23 21.26 125.23 23.74 124.23 23.74 124.23 17.93 125.23 17.93 125.23 20.45 127.9 20.45 127.9 17.93 128.9 17.93"></polygon>
            <path d="M131.58,19.93 L133.09,19.93 C133.659054,19.9073688 134.216964,20.0921544 134.66,20.45 C135.044956,20.7987017 135.254003,21.3011477 135.23,21.82 C135.249346,22.3479292 135.03319,22.857176 134.64,23.21 C134.198031,23.5848366 133.628477,23.7746881 133.05,23.74 L130.59,23.74 L130.59,17.93 L131.59,17.93 L131.58,19.93 Z M131.58,20.74 L131.58,22.93 L133.06,22.93 C133.373435,22.9485762 133.681818,22.8445867 133.92,22.64 C134.132728,22.438048 134.246063,22.1528819 134.23,21.86 C134.241879,21.5638039 134.133709,21.2753504 133.93,21.06 C133.70685,20.8472751 133.408198,20.7321322 133.1,20.74 L131.58,20.74 Z M137.3,23.74 L136.3,23.74 L136.3,17.93 L137.3,17.93 L137.3,23.74 Z" id="Shape" fill="#404040"></path>
            <path d="M141.45,23.85 C140.727758,23.8773679 140.028531,23.5933069 139.53,23.07 C139.015461,22.5073125 138.748792,21.7613605 138.79,21 L138.79,20.81 C138.780867,20.2781932 138.893758,19.7513694 139.12,19.27 C139.319627,18.8363688 139.638773,18.4686571 140.04,18.21 C140.421414,17.9541129 140.870705,17.8182807 141.33,17.82 C142.000888,17.7854708 142.650228,18.062178 143.09,18.57 C143.547486,19.185876 143.770814,19.9444843 143.72,20.71 L143.72,21.12 L139.78,21.12 C139.76814,21.629369 139.946389,22.124901 140.28,22.51 C140.589681,22.8564544 141.035424,23.0500969 141.5,23.04 C141.814476,23.0503674 142.12577,22.9742732 142.4,22.82 C142.64631,22.6744561 142.860612,22.4805633 143.03,22.25 L143.64,22.73 C143.162448,23.4676996 142.327647,23.8946299 141.45,23.85 Z M141.33,18.64 C140.948223,18.6326847 140.582536,18.793587 140.33,19.08 C140.033673,19.421518 139.854891,19.8491934 139.82,20.3 L142.730017,20.3 L142.73,20.23 C142.731827,19.8014319 142.58717,19.3851029 142.32,19.05 C142.072075,18.7642365 141.708068,18.6061324 141.33,18.62 L141.33,18.64 Z" id="Shape" fill="#404040"></path>
            <path d="M9.08,36.04 C9.41794833,36.0457841 9.7471623,35.9325062 10.01,35.72 C10.2641538,35.5239795 10.4238999,35.2299015 10.45,34.91 L11.39,34.91 C11.3679314,35.2522714 11.2501194,35.5814521 11.05,35.86 C10.832138,36.1680421 10.5396802,36.4157711 10.2,36.58 C9.19389443,37.0814314 7.97865392,36.8707897 7.2,36.06 C6.70029169,35.4509077 6.44696976,34.6766703 6.49,33.89 L6.49,33.72 C6.48262913,33.1990918 6.59196967,32.6831411 6.81,32.21 C6.99992111,31.7951206 7.3099544,31.4467686 7.7,31.21 C8.11421328,30.9550498 8.59380146,30.8264646 9.08,30.84 C9.67574033,30.8212667 10.2558375,31.0325366 10.7,31.43 C11.1311364,31.8188368 11.3811033,32.3694886 11.39,32.95 L10.45,32.95 C10.4329684,32.5979634 10.2828423,32.2655414 10.03,32.02 C9.75929578,31.7693274 9.39836509,31.6393924 9.03,31.66 C8.57195592,31.6358303 8.13112414,31.8375669 7.85,32.2 C7.54921585,32.6698516 7.40563108,33.2231783 7.44,33.78 L7.44,33.97 C7.40788387,34.5171684 7.55154388,35.0602733 7.85,35.52 C8.1455901,35.8903052 8.60842193,36.085974 9.08,36.04 Z" id="Shape" fill="#404040"></path>
            <polygon id="Shape" fill="#404040" points="17 34.27 16.28 34.27 16.28 36.74 15.28 36.74 15.28 30.93 16.28 30.93 16.28 33.39 17 33.39 19 30.93 20.21 30.93 17.91 33.72 20.4 36.72 19.06 36.72"></polygon>
            <path d="M23.07,35.29 L24.43,30.93 L25.49,30.93 L23.16,37.62 C22.79,38.62 22.22,39.07 21.43,39.07 L21.24,39.07 L20.87,39 L20.87,38.2 L21.14,38.2 C21.4190634,38.2167662 21.6960974,38.1431243 21.93,37.99 C22.1576141,37.7980845 22.3186384,37.5390454 22.39,37.25 L22.61,36.66 L20.54,30.91 L21.62,30.91 L23.07,35.29 Z" id="Shape" fill="#404040"></path>
            <path d="M30.93,30.93 L30.93,36.74 L29.93,36.74 L29.93,31.74 L27.93,31.74 L27.81,33.92 C27.8082098,34.6620711 27.6372075,35.393961 27.31,36.06 C27.028233,36.4951864 26.5380626,36.749771 26.02,36.73 L25.62,36.73 L25.62,35.86 L25.91,35.86 C26.2284371,35.8290264 26.498806,35.613515 26.6,35.31 C26.783192,34.7037169 26.8742089,34.073341 26.87,33.44 L26.98,30.95 L30.93,30.93 Z" id="Shape" fill="#404040"></path>
            <path d="M33.61,32.93 L35.12,32.93 C35.6890537,32.9073688 36.2469641,33.0921544 36.69,33.45 C37.0749558,33.7987017 37.2840027,34.3011477 37.26,34.82 C37.2793456,35.3479292 37.0631904,35.857176 36.67,36.21 C36.2280313,36.5848366 35.6584769,36.7746881 35.08,36.74 L32.62,36.74 L32.62,30.93 L33.62,30.93 L33.61,32.93 Z M33.61,33.74 L33.61,35.93 L35.09,35.93 C35.4225298,35.9521063 35.7501196,35.8405097 36,35.62 C36.2090557,35.4162512 36.3186427,35.131325 36.3,34.84 C36.3118793,34.5438039 36.2037093,34.2553504 36,34.04 C35.77685,33.8272751 35.4781978,33.7121322 35.17,33.72 L33.61,33.74 Z" id="Shape" fill="#404040"></path>
            <polygon id="Shape" fill="#404040" points="42.45 31.74 40.45 31.74 40.45 36.74 39.45 36.74 39.45 31.74 37.54 31.74 37.54 30.93 42.4 30.93"></polygon>
            <path d="M45.37,35.29 L46.72,30.93 L47.79,30.93 L45.45,37.62 C45.09,38.62 44.51,39.07 43.73,39.07 L43.54,39.07 L43.17,39 L43.17,38.2 L43.44,38.2 C43.715777,38.2153078 43.9891861,38.1416977 44.22,37.99 C44.4478015,37.7964568 44.6116579,37.5384701 44.69,37.25 L44.91,36.66 L42.83,30.91 L43.92,30.91 L45.37,35.29 Z" id="Shape" fill="#404040"></path>
            <path d="M53.58,33.9 C53.6178559,34.6610419 53.4034283,35.4132961 52.97,36.04 C52.5929096,36.5669407 51.9776341,36.8708268 51.33,36.85 C50.7055798,36.878593 50.0996295,36.6340227 49.67,36.18 L49.67,38.98 L48.67,38.98 L48.67,30.93 L49.58,30.93 L49.58,31.57 C49.9849488,31.0619771 50.611425,30.7823003 51.26,30.82 C51.9382729,30.7735955 52.5936705,31.0749277 53,31.62 C53.4428059,32.2648702 53.6575011,33.039181 53.61,33.82 L53.58,33.9 Z M52.58,33.79 C52.6106157,33.238446 52.4633954,32.6916279 52.16,32.23 C51.893846,31.8634673 51.4626722,31.6535044 51.01,31.67 C50.441463,31.6465157 49.9124138,31.9600264 49.66,32.47 L49.66,35.24 C49.9177934,35.7497602 50.4491994,36.062352 51.02,36.04 C51.471418,36.0526327 51.8992553,35.838714 52.16,35.47 C52.4768688,34.9693395 52.6273714,34.3813292 52.59,33.79 L52.58,33.79 Z" id="Shape" fill="#404040"></path>
            <path d="M54.58,33.78 C54.5692124,33.2501352 54.6858144,32.7254264 54.92,32.25 C55.1204106,31.8138028 55.443583,31.4454558 55.85,31.19 C56.2641377,30.943466 56.7380575,30.815473 57.22,30.82 C57.9494795,30.7975047 58.651834,31.0974686 59.14,31.64 C59.6499328,32.2523049 59.9105633,33.0341964 59.87,33.83 L59.87,33.9 C59.8775144,34.4241416 59.7682015,34.9433776 59.55,35.42 C59.3465479,35.8515745 59.0238451,36.2159164 58.62,36.47 C58.201507,36.7245967 57.7198126,36.8562829 57.23,36.85 C56.5005205,36.8724953 55.798166,36.5725314 55.31,36.03 C54.8015878,35.4207626 54.5409929,34.6425475 54.58,33.85 L54.58,33.78 Z M55.58,33.9 C55.5529758,34.4523896 55.7113678,34.9979623 56.03,35.45 C56.3088993,35.8317251 56.7574017,36.0522388 57.23,36.04 C57.7048212,36.0516971 58.1544649,35.8268752 58.43,35.44 C58.7576178,34.9508215 58.9157014,34.3676687 58.88,33.78 C58.9072767,33.22607 58.7450314,32.679374 58.42,32.23 C58.1340677,31.8598377 57.6927364,31.6430791 57.225,31.6430791 C56.7572636,31.6430791 56.3159323,31.8598377 56.03,32.23 C55.7016213,32.7225732 55.5435685,33.3091246 55.58,33.9 Z" id="Shape" fill="#404040"></path>
            <path d="M64.88,30.93 L65.88,30.93 L65.88,36.74 L64.88,36.74 L64.88,32.5 L62.2,36.74 L61.2,36.74 L61.2,30.93 L62.2,30.93 L62.2,35.17 L64.88,30.93 Z M65.15,28.81 C65.1627717,29.2093466 64.9979901,29.593837 64.7,29.86 C64.0120928,30.3851153 63.0579072,30.3851153 62.37,29.86 C62.0879373,29.6043058 61.927952,29.2407029 61.93,28.86 L62.74,28.86 C62.7305888,29.0747503 62.8019411,29.2852395 62.94,29.45 C63.1030288,29.5988344 63.31974,29.6746833 63.54,29.66 C63.7582151,29.682154 63.9748266,29.6050157 64.1299212,29.4499212 C64.2850157,29.2948266 64.362154,29.0782151 64.34,28.86 L65.15,28.81 Z" id="Shape" fill="#404040"></path>
            <path d="M67.43,38.3 L66.87,37.91 C67.1888421,37.49117 67.3735928,36.9857199 67.4,36.46 L67.4,35.56 L68.4,35.56 L68.4,36.34 C68.3970843,36.7195249 68.3045731,37.0929957 68.13,37.43 C67.9627009,37.767448 67.7238163,38.0643474 67.43,38.3 Z" id="Shape" fill="#404040"></path>
            <polygon id="Shape" fill="#404040" points="76.11 30.93 77.11 30.93 77.11 36.74 76.11 36.74 76.11 32.5 73.43 36.74 72.43 36.74 72.43 30.93 73.43 30.93 73.43 35.17"></polygon>
            <path d="M81,36.04 C81.3374144,36.0424669 81.665542,35.9295627 81.93,35.72 C82.1804215,35.5208232 82.3392206,35.2284886 82.37,34.91 L83.31,34.91 C83.2839373,35.2530507 83.1627315,35.5820378 82.96,35.86 C82.7436654,36.165604 82.4550952,36.4129499 82.12,36.58 C81.7733015,36.7573847 81.3894421,36.8499223 81,36.85 C80.2843655,36.8780493 79.592801,36.5889827 79.11,36.06 C78.6138779,35.4494563 78.3641715,34.6753665 78.41,33.89 L78.41,33.72 C78.3991547,33.1998214 78.5050866,32.6838307 78.72,32.21 C78.9158154,31.7990002 79.2244916,31.4521731 79.61,31.21 C80.0242133,30.9550498 80.5038015,30.8264646 80.99,30.84 C81.588667,30.8217615 82.1717064,31.0328003 82.62,31.43 C83.0511364,31.8188368 83.3011033,32.3694886 83.31,32.95 L82.37,32.95 C82.3533868,32.5957971 82.1990917,32.2620891 81.94,32.02 C81.6917772,31.7677748 81.3538591,31.6239799 81,31.62 C80.5454158,31.5991517 80.1090602,31.8005465 79.83,32.16 C79.5210726,32.6266056 79.3735466,33.1815843 79.41,33.74 L79.41,33.93 C79.3764811,34.4787197 79.5240364,35.0232691 79.83,35.48 C80.1036561,35.8483477 80.5414728,36.0579009 81,36.04 Z" id="Shape" fill="#404040"></path>
            <polygon id="Shape" fill="#404040" points="86.26 34.27 85.54 34.27 85.54 36.74 84.54 36.74 84.54 30.93 85.54 30.93 85.54 33.39 86.19 33.39 88.14 30.93 89.35 30.93 87.05 33.72 89.54 36.72 88.28 36.72"></polygon>
            <path d="M92.3,35.29 L93.65,30.93 L94.71,30.93 L92.38,37.62 C92.01,38.62 91.44,39.07 90.65,39.07 L90.46,39.07 L90.09,39 L90.09,38.2 L90.36,38.2 C90.6390634,38.2167662 90.9160974,38.1431243 91.15,37.99 C91.3776141,37.7980845 91.5386384,37.5390454 91.61,37.25 L91.83,36.66 L89.76,30.91 L90.85,30.91 L92.3,35.29 Z" id="Shape" fill="#404040"></path>
            <path d="M97.88,36.04 C98.2146653,36.0442835 98.540231,35.9310433 98.8,35.72 C99.0571428,35.526542 99.2176765,35.2310142 99.24,34.91 L100.18,34.91 C100.162396,35.2531799 100.044147,35.5835827 99.84,35.86 C99.6236654,36.165604 99.3350952,36.4129499 99,36.58 C98.6533015,36.7573847 98.2694421,36.8499223 97.88,36.85 C97.1636137,36.882254 96.4703369,36.5924717 95.99,36.06 C95.4938779,35.4494563 95.2441715,34.6753665 95.29,33.89 L95.29,33.72 C95.2791547,33.1998214 95.3850866,32.6838307 95.6,32.21 C95.7929534,31.7971083 96.1022805,31.4495498 96.49,31.21 C96.9042133,30.9550498 97.3838015,30.8264646 97.87,30.84 C98.4657403,30.8212667 99.0458375,31.0325366 99.49,31.43 C99.9305552,31.8118757 100.182544,32.3669807 100.18,32.95 L99.24,32.95 C99.2295494,32.5972084 99.0792991,32.2630377 98.8223386,32.0210822 C98.5653782,31.7791267 98.222782,31.6492303 97.87,31.66 C97.4144043,31.6339044 96.9757235,31.8363725 96.7,32.2 C96.3910726,32.6666056 96.2435466,33.2215843 96.28,33.78 L96.28,33.97 C96.2478839,34.5171684 96.3915439,35.0602733 96.69,35.52 C96.9784846,35.8765602 97.4223684,36.0705262 97.88,36.04 Z" id="Shape" fill="#404040"></path>
            <path d="M103.63,36.04 C103.967948,36.0457841 104.297162,35.9325062 104.56,35.72 C104.814154,35.5239795 104.9739,35.2299015 105,34.91 L105.94,34.91 C105.917931,35.2522714 105.800119,35.5814521 105.6,35.86 C105.382138,36.1680421 105.08968,36.4157711 104.75,36.58 C103.743894,37.0814314 102.528654,36.8707897 101.75,36.06 C101.250292,35.4509077 100.99697,34.6766703 101.04,33.89 L101.04,33.72 C101.032629,33.1990918 101.14197,32.6831411 101.36,32.21 C101.549921,31.7951206 101.859954,31.4467686 102.25,31.21 C102.664213,30.9550498 103.143801,30.8264646 103.63,30.84 C104.22574,30.8212667 104.805837,31.0325366 105.25,31.43 C105.681136,31.8188368 105.931103,32.3694886 105.94,32.95 L105,32.95 C104.982968,32.5979634 104.832842,32.2655414 104.58,32.02 C104.309296,31.7693274 103.948365,31.6393924 103.58,31.66 C103.121956,31.6358303 102.681124,31.8375669 102.4,32.2 C102.099216,32.6698516 101.955631,33.2231783 101.99,33.78 L101.99,33.97 C101.957884,34.5171684 102.101544,35.0602733 102.4,35.52 C102.69559,35.8903052 103.158422,36.085974 103.63,36.04 Z" id="Shape" fill="#404040"></path>
            <polygon id="Shape" fill="#404040" points="111.38 31.74 109.43 31.74 109.43 36.74 108.43 36.74 108.43 31.74 106.52 31.74 106.52 30.93 111.38 30.93"></polygon>
            <path d="M112.44,36.74 L112.44,30.93 L114.7,30.93 C115.319399,30.8900845 115.937229,31.0289226 116.48,31.33 C116.886282,31.5857061 117.123239,32.0405098 117.1,32.52 C117.103692,32.7832957 117.01921,33.0402612 116.86,33.25 C116.618485,33.1801123 116.360325,33.2828971 116.232938,33.4996609 C116.105551,33.7164247 116.141373,33.9919753 116.319947,34.1689641 C116.498522,34.3459529 116.774381,34.3793152 116.99,34.25 C117.203606,34.4846573 117.318259,34.7927881 117.31,35.11 C117.33796,35.594184 117.115117,36.0587554 116.72,36.34 C116.223835,36.6492865 115.643553,36.796105 115.06,36.76 L112.44,36.74 Z M113.44,33.39 L114.72,33.39 C115.65,33.39 116.12,33.12 116.12,32.58 C116.12,32.04 115.68,31.75 114.8,31.74 L113.44,31.74 L113.44,33.39 Z M113.44,34.19 L113.44,35.94 L115.08,35.94 C115.40651,35.9634623 115.732065,35.8829486 116.01,35.71 C116.217398,35.5603591 116.334249,35.3153496 116.32,35.06 C116.32,34.48 115.9,34.19 115.05,34.19 L113.44,34.19 Z" id="Shape" fill="#404040"></path>
            <path d="M118.37,33.78 C118.360974,33.2514181 118.473896,32.7278675 118.7,32.25 C118.907376,31.8152733 119.233188,31.4478687 119.64,31.19 C120.050414,30.9433184 120.52118,30.8152424 121,30.82 C121.729479,30.7975047 122.431834,31.0974686 122.92,31.64 C123.433529,32.2508336 123.697782,33.0328787 123.66,33.83 L123.66,33.9 C123.668928,34.4253592 123.555972,34.9456389 123.33,35.42 C123.126548,35.8515745 122.803845,36.2159164 122.4,36.47 C121.98261,36.7271473 121.500161,36.8590399 121.01,36.85 C120.283716,36.8708976 119.58507,36.5709556 119.1,36.03 C118.591588,35.4207626 118.330993,34.6425475 118.37,33.85 L118.37,33.78 Z M119.37,33.9 C119.342976,34.4523896 119.501368,34.9979623 119.82,35.45 C120.107719,35.8242118 120.552965,36.0435147 121.025,36.0435147 C121.497035,36.0435147 121.942281,35.8242118 122.23,35.45 C122.550109,34.9578233 122.704297,34.3761156 122.67,33.79 C122.695492,33.2377913 122.537242,32.6927053 122.22,32.24 C121.941371,31.8437382 121.48434,31.6114767 121,31.62 C120.535081,31.6068823 120.0936,31.8238815 119.82,32.2 C119.481679,32.6996509 119.319794,33.2979241 119.36,33.9 L119.37,33.9 Z" id="Shape" fill="#404040"></path>
            <polygon id="Shape" fill="#404040" points="128.25 35.43 130.25 30.93 131.49 30.93 131.49 36.74 130.49 36.74 130.49 32.51 128.61 36.74 127.92 36.74 126 32.42 126 36.74 125 36.74 125 30.93 126.29 30.93"></polygon>
            <path d="M133,38.3 L132.43,37.91 C132.752832,37.4933635 132.938057,36.9866163 132.96,36.46 L132.96,35.56 L133.96,35.56 L133.96,36.34 C133.955898,36.7182002 133.867052,37.0906685 133.7,37.43 C133.532701,37.767448 133.293816,38.0643474 133,38.3 Z" id="Shape" fill="#404040"></path>
            <path d="M6.49,46.78 C6.48097352,46.2514181 6.59389618,45.7278675 6.82,45.25 C7.02737642,44.8152733 7.35318798,44.4478687 7.76,44.19 C8.17352304,43.942017 8.64785913,43.8139116 9.13,43.82 C9.85947949,43.7975047 10.561834,44.0974686 11.05,44.64 C11.5599328,45.2523049 11.8205633,46.0341964 11.78,46.83 L11.78,46.9 C11.7889279,47.4253592 11.6759725,47.9456389 11.45,48.42 C11.2531361,48.8527751 10.9331528,49.2179733 10.53,49.47 C10.111507,49.7245967 9.62981262,49.8562829 9.14,49.85 C8.41052051,49.8724953 7.70816597,49.5725314 7.22,49.03 C6.71158782,48.4207626 6.45099288,47.6425475 6.49,46.85 L6.49,46.78 Z M7.49,46.9 C7.46297577,47.4523896 7.62136785,47.9979623 7.94,48.45 C8.21889935,48.8317251 8.66740172,49.0522388 9.14,49.04 C9.61482121,49.0516971 10.0644649,48.8268752 10.34,48.44 C10.6676178,47.9508215 10.8257014,47.3676687 10.79,46.78 C10.8125823,46.2266444 10.6507837,45.6814534 10.33,45.23 C10.0440677,44.8598377 9.60273645,44.6430791 9.135,44.6430791 C8.66726355,44.6430791 8.22593227,44.8598377 7.94,45.23 C7.61162126,45.7225732 7.4535685,46.3091246 7.49,46.9 Z" id="Shape" fill="#404040"></path>
            <path d="M15.58,44.26 C16.2442355,44.2347948 16.8853574,44.5058978 17.33,45 C17.7883724,45.535456 18.0245143,46.2259921 17.99,46.93 L17.99,47.02 C17.9975782,47.5280665 17.8880837,48.0310572 17.67,48.49 C17.4726806,48.9062903 17.1558915,49.2544102 16.76,49.49 C16.346073,49.7359663 15.8713734,49.8607048 15.39,49.85 C14.6791446,49.8789869 13.9915463,49.5937068 13.51,49.07 C13.010301,48.4878196 12.752642,47.7363142 12.79,46.97 L12.79,46.49 C12.7394928,45.475443 12.9751166,44.4671117 13.47,43.58 C13.9142416,42.8713151 14.6437294,42.3898531 15.47,42.26 C15.8216473,42.216191 16.1613456,42.1040905 16.47,41.93 C16.6391981,41.8073835 16.7365907,41.6088525 16.73,41.4 L17.54,41.4 C17.5628838,41.773994 17.4570114,42.1445475 17.24,42.45 C16.9764879,42.7350519 16.623829,42.9219611 16.24,42.98 L15.5,43.15 C14.9957856,43.2426188 14.5318115,43.4868157 14.17,43.85 C13.8538974,44.2290178 13.6526665,44.6904611 13.59,45.18 C14.0734398,44.5796185 14.8094511,44.239352 15.58,44.26 Z M15.38,45.08 C14.9394085,45.0610654 14.5135921,45.2409361 14.22,45.57 C13.91439,45.9550778 13.7613138,46.4392256 13.79,46.93 L13.79,47.02 C13.7641945,47.5490031 13.9193867,48.0710132 14.23,48.5 C14.520696,48.8414594 14.9465597,49.0381961 15.395,49.0381961 C15.8434403,49.0381961 16.269304,48.8414594 16.56,48.5 C16.8795937,48.0266338 17.0310166,47.4596783 16.99,46.89 C17.0138052,46.4151552 16.8605843,45.9483658 16.56,45.58 C16.2647444,45.2403842 15.8293709,45.0559039 15.38,45.08 Z" id="Shape" fill="#404040"></path>
            <path d="M23.93,46.9 C23.9626998,47.6604428 23.7487312,48.4110866 23.32,49.04 C22.9429096,49.5669407 22.3276341,49.8708268 21.68,49.85 C21.052605,49.8788624 20.4434783,49.6344822 20.01,49.18 L20.01,51.98 L19,51.98 L19,43.93 L19.91,43.93 L19.91,44.57 C20.3231999,44.0670333 20.9498111,43.7889514 21.6,43.82 C22.2487465,43.7983509 22.867651,44.0928898 23.26,44.61 C23.698655,45.2567973 23.9129506,46.0296666 23.87,46.81 L23.93,46.9 Z M22.93,46.79 C22.9606157,46.238446 22.8133954,45.6916279 22.51,45.23 C22.243846,44.8634673 21.8126722,44.6535044 21.36,44.67 C20.791463,44.6465157 20.2624138,44.9600264 20.01,45.47 L20.01,48.24 C20.2712229,48.7513545 20.8062801,49.0637966 21.38,49.04 C21.8283162,49.0510565 22.2524435,48.8371162 22.51,48.47 C22.8233659,47.9681777 22.9703477,47.3802507 22.93,46.79 Z" id="Shape" fill="#404040"></path>
            <path d="M28.78,49.74 C28.6984601,49.5462761 28.6510933,49.3398919 28.64,49.13 C28.2132696,49.5937901 27.6102154,49.8553558 26.98,49.85 C26.464376,49.8747542 25.9591506,49.6991794 25.57,49.36 C25.2122768,49.0526375 25.0105659,48.6015385 25.02,48.13 C24.9936326,47.5729065 25.2539249,47.0410047 25.71,46.72 C26.2889639,46.3557094 26.9670791,46.1809374 27.65,46.22 L28.65,46.22 L28.65,45.76 C28.6663499,45.4522981 28.5540581,45.1516459 28.34,44.93 C28.0859385,44.7098671 27.7554761,44.5985156 27.42,44.62 C27.1017344,44.6098341 26.7889721,44.704717 26.53,44.89 C26.3105563,45.034417 26.1759991,45.2773675 26.17,45.54 L25.17,45.54 C25.1747669,45.2328876 25.2841179,44.9365818 25.48,44.7 C25.7012251,44.4189143 25.990278,44.1986836 26.32,44.06 C26.6848373,43.8972913 27.0805511,43.8154195 27.48,43.82 C28.0470027,43.7880112 28.6059203,43.9660105 29.05,44.32 C29.4397777,44.6752526 29.6552279,45.1828385 29.64,45.71 L29.64,48.38 C29.6224485,48.8164944 29.693898,49.2519957 29.85,49.66 L29.85,49.74 L28.78,49.74 Z M27.13,48.98 C27.4394562,48.9796767 27.7432274,48.89683 28.01,48.74 C28.274708,48.5996164 28.4882262,48.3790977 28.62,48.11 L28.62,46.92 L27.84,46.92 C26.63,46.92 26.02,47.28 26.02,47.99 C26.0032107,48.2684704 26.1179662,48.538701 26.33,48.72 C26.5552128,48.9028467 26.8403221,48.9955072 27.13,48.98 Z" id="Shape" fill="#404040"></path>
            <path d="M34.37,45.52 C34.3755401,45.2664438 34.2605234,45.0252797 34.06,44.87 C33.8075266,44.697602 33.5052593,44.6132483 33.2,44.63 C32.8829874,44.6178382 32.5716973,44.7168851 32.32,44.91 C32.1072023,45.0546363 31.9769589,45.2927956 31.97,45.55 L30.97,45.55 C30.9681022,45.0569696 31.2070221,44.5940623 31.61,44.31 C32.0685056,43.9784894 32.624572,43.8095579 33.19,43.83 C33.7544374,43.7933241 34.3147165,43.9483699 34.78,44.27 C35.1649927,44.5667907 35.3783672,45.0347172 35.35,45.52 C35.3488212,45.7778819 35.2685415,46.0291922 35.12,46.24 C34.9401732,46.467256 34.7064331,46.6459984 34.44,46.76 C35.0513321,46.9158676 35.4690445,47.4797793 35.44,48.11 C35.452943,48.6091397 35.2215149,49.0831941 34.82,49.38 C34.3354462,49.7103845 33.7555935,49.8720404 33.17,49.84 C32.5806084,49.8663601 31.9994712,49.6937799 31.52,49.35 C31.091024,49.0452786 30.843223,48.5459221 30.86,48.02 L31.86,48.02 C31.8631126,48.3099819 32.0042511,48.5811164 32.24,48.75 C32.8042395,49.1218682 33.5357605,49.1218682 34.1,48.75 C34.3230659,48.5961474 34.4544217,48.3409418 34.45,48.07 C34.4733939,47.8033174 34.3651362,47.5420058 34.16,47.37 C33.884527,47.2104855 33.5675158,47.137329 33.25,47.16 L32.25,47.16 L32.25,46.32 L33.33,46.32 C34.0233333,46.3266667 34.37,46.06 34.37,45.52 Z" id="Shape" fill="#404040"></path>
            <path d="M36.5,46.78 C36.4909735,46.2514181 36.6038962,45.7278675 36.83,45.25 C37.034083,44.8131002 37.3606367,44.4448588 37.77,44.19 C38.1797834,43.9418444 38.6509767,43.8136521 39.13,43.82 C39.8594795,43.7975047 40.561834,44.0974686 41.05,44.64 C41.5635291,45.2508336 41.8277818,46.0328787 41.79,46.83 L41.79,46.9 C41.7989279,47.4253592 41.6859725,47.9456389 41.46,48.42 C41.2565479,48.8515745 40.9338451,49.2159164 40.53,49.47 C40.1126098,49.7271473 39.6301608,49.8590399 39.14,49.85 C38.4137155,49.8708976 37.71507,49.5709556 37.23,49.03 C36.7215878,48.4207626 36.4609929,47.6425475 36.5,46.85 L36.5,46.78 Z M37.5,46.9 C37.4729758,47.4523896 37.6313678,47.9979623 37.95,48.45 C38.2377193,48.8242118 38.6829652,49.0435147 39.155,49.0435147 C39.6270348,49.0435147 40.0722807,48.8242118 40.36,48.45 C40.6801092,47.9578233 40.8342967,47.3761156 40.8,46.79 C40.8254924,46.2377913 40.6672416,45.6927053 40.35,45.24 C40.0668084,44.8580281 39.6153456,44.6378933 39.14,44.65 C38.6750808,44.6368823 38.2335997,44.8538815 37.96,45.23 C37.6203929,45.7181633 37.4548507,46.3063664 37.49,46.9 L37.5,46.9 Z" id="Shape" fill="#404040"></path>
            <path d="M43.12,49.74 L43.12,43.93 L45.39,43.93 C46.0093101,43.8912092 46.6268277,44.0299772 47.17,44.33 C47.5731243,44.5886042 47.8090541,45.0414373 47.79,45.52 C47.7936921,45.7832957 47.7092103,46.0402612 47.55,46.25 C47.3651392,46.4846399 47.1144317,46.6587423 46.83,46.75 C47.1581435,46.8128977 47.4566776,46.9814817 47.68,47.23 C47.8901199,47.4667669 48.0042422,47.7734704 48,48.09 C48.0241764,48.5734299 47.8021606,49.0362764 47.41,49.32 C46.9138354,49.6292865 46.3335528,49.776105 45.75,49.74 L43.12,49.74 Z M44.12,46.39 L45.4,46.39 C46.33,46.39 46.8,46.12 46.8,45.58 C46.8,45.04 46.36,44.75 45.48,44.74 L44.12,44.74 L44.12,46.39 Z M44.12,47.19 L44.12,48.94 L45.76,48.94 C46.0865097,48.9634623 46.4120651,48.8829486 46.69,48.71 C46.8973983,48.5603591 47.014249,48.3153496 47,48.06 C47,47.48 46.57,47.19 45.72,47.19 L44.12,47.19 Z" id="Shape" fill="#404040"></path>
            <path d="M52.9,49.74 C52.8280666,49.5433039 52.7810344,49.3383779 52.76,49.13 C52.337105,49.5932885 51.7372568,49.8550405 51.11,49.85 C50.594376,49.8747542 50.0891506,49.6991794 49.7,49.36 C49.3387348,49.0552913 49.1362265,48.6024089 49.15,48.13 C49.1236326,47.5729065 49.3839249,47.0410047 49.84,46.72 C50.4189639,46.3557094 51.0970791,46.1809374 51.78,46.22 L52.78,46.22 L52.78,45.76 C52.7916687,45.4530341 52.6800406,45.1541588 52.47,44.93 C52.2153995,44.7108114 51.8853337,44.5995935 51.55,44.62 C51.2315358,44.6083167 50.9182941,44.703345 50.66,44.89 C50.4405563,45.034417 50.3059991,45.2773675 50.3,45.54 L49.3,45.54 C49.3047669,45.2328876 49.4141179,44.9365818 49.61,44.7 C49.8275016,44.4193163 50.1132394,44.1989883 50.44,44.06 C50.8082961,43.8970839 51.2073079,43.8152354 51.61,43.82 C52.1770027,43.7880112 52.7359203,43.9660105 53.18,44.32 C53.5697777,44.6752526 53.7852279,45.1828385 53.77,45.71 L53.77,48.38 C53.7641825,48.8044531 53.8423481,49.2258678 54,49.62 L54,49.7 L52.9,49.74 Z M51.25,48.98 C51.5627838,48.9809744 51.8701125,48.8980993 52.14,48.74 C52.4023074,48.5964444 52.6149784,48.3768006 52.75,48.11 L52.75,46.92 L52,46.92 C50.78,46.92 50.17,47.28 50.17,47.99 C50.1577599,48.2676674 50.2717031,48.5359853 50.48,48.72 C50.6982021,48.8943424 50.9707748,48.9863799 51.25,48.98 Z" id="Shape" fill="#404040"></path>
            <polygon id="Shape" fill="#404040" points="60.05 49.74 59.05 49.74 59.05 47.26 56.38 47.26 56.38 49.74 55.38 49.74 55.38 43.93 56.38 43.93 56.38 46.45 59.05 46.45 59.05 43.93 60.05 43.93"></polygon>
            <polygon id="Shape" fill="#404040" points="65.4 43.93 66.4 43.93 66.4 49.74 65.4 49.74 65.4 45.5 62.72 49.74 61.72 49.74 61.72 43.93 62.72 43.93 62.72 48.17"></polygon>
            <path d="M70.4,49.85 C69.6779864,49.8760706 68.9792715,49.5922177 68.48,49.07 C67.9693402,48.504984 67.7032683,47.7607019 67.74,47 L67.74,46.81 C67.7308673,46.2781932 67.8437582,45.7513694 68.07,45.27 C68.2728175,44.838437 68.5912693,44.4715251 68.99,44.21 C69.3719379,43.9552212 69.8208828,43.8194937 70.28,43.82 C70.9453847,43.8101696 71.5788198,44.1047906 72,44.62 C72.4574857,45.235876 72.6808143,45.9944843 72.63,46.76 L72.63,47.17 L68.69,47.17 C68.6828287,47.6785964 68.8604954,48.17251 69.19,48.56 C69.503574,48.9069113 69.9524863,49.100345 70.42,49.09 C70.7313256,49.1005969 71.0394668,49.0244271 71.31,48.87 C71.5573028,48.7219686 71.774438,48.5285826 71.95,48.3 L72.55,48.78 C72.0706104,49.4890764 71.2547328,49.8951178 70.4,49.85 Z M70.28,44.64 C69.8982232,44.6326847 69.5325363,44.793587 69.28,45.08 C68.9872196,45.423707 68.8089401,45.8501794 68.77,46.3 L71.69,46.3 L71.69,46.23 C71.6871721,45.8022203 71.5430294,45.3873706 71.28,45.05 C71.0264243,44.7661616 70.6604461,44.608791 70.28,44.62 L70.28,44.64 Z" id="Shape" fill="#404040"></path>
            <polygon id="Shape" fill="#404040" points="77.17 48.43 79.17 43.93 80.41 43.93 80.41 49.74 79.41 49.74 79.41 45.51 77.53 49.74 76.84 49.74 74.92 45.42 74.92 49.74 73.92 49.74 73.92 43.93 75.21 43.93"></polygon>
            <path d="M82,51.3 L81.43,50.91 C81.7488421,50.49117 81.9335928,49.9857199 81.96,49.46 L81.96,48.56 L82.96,48.56 L82.96,49.34 C82.9570843,49.7195249 82.8645731,50.0929957 82.69,50.43 C82.5261459,50.7668162 82.2906498,51.063746 82,51.3 Z" id="Shape" fill="#404040"></path>
            <path d="M86.65,46.94 C86.6023777,46.1377427 86.7975216,45.3397436 87.21,44.65 C87.5430085,44.1181343 88.1327328,43.8023464 88.76,43.82 C89.0352797,43.8127975 89.3086658,43.8674747 89.56,43.98 L89.56,41.49 L90.56,41.49 L90.56,44.01 C90.8334835,43.8759481 91.1355708,43.8107247 91.44,43.82 C92.0648199,43.7923237 92.6578615,44.0964476 93,44.62 C93.4238994,45.3493877 93.6222429,46.1879977 93.57,47.03 C93.5965062,47.7387574 93.4007013,48.4380607 93.01,49.03 C92.6505707,49.5226433 92.0693577,49.8038754 91.46,49.78 C91.1542346,49.7921662 90.8497548,49.7340071 90.57,49.61 L90.57,51.91 L89.57,51.91 L89.57,49.63 C89.3126251,49.7332419 89.0372775,49.7842322 88.76,49.78 C88.1529881,49.8059244 87.5738597,49.5238814 87.22,49.03 C86.8128319,48.4156856 86.6162979,47.6857025 86.66,46.95 L86.65,46.94 Z M87.65,47.06 C87.6134142,47.5774495 87.7355124,48.0937503 88,48.54 C88.2257249,48.8669059 88.6030403,49.0555636 89,49.04 C89.1937406,49.0427024 89.3865173,49.012264 89.57,48.95 L89.57,44.73 C89.3887608,44.6572939 89.1952788,44.6199552 89,44.62 C88.585518,44.6152892 88.2017253,44.8378889 88,45.2 C87.722354,45.7788274 87.5983764,46.4193785 87.64,47.06 L87.65,47.06 Z M92.56,46.94 C92.5934518,46.3502384 92.4655348,45.7625116 92.19,45.24 C91.9871965,44.87629 91.6063576,44.6477866 91.19,44.64 C90.9876451,44.6329393 90.7862154,44.670494 90.6,44.75 L90.6,48.95 C90.7930871,49.0153156 90.9962471,49.0457896 91.2,49.04 C91.5967945,49.0442586 91.9704591,48.8536896 92.2,48.53 C92.471011,48.04615 92.5927899,47.4929257 92.55,46.94 L92.56,46.94 Z" id="Shape" fill="#404040"></path>
            <polygon id="Shape" fill="#404040" points="98.6 43.93 99.6 43.93 99.6 49.74 98.6 49.74 98.6 45.5 95.92 49.74 94.92 49.74 94.92 43.93 95.92 43.93 95.92 48.17"></polygon>
            <path d="M104.38,45.52 C104.390594,45.2653844 104.274527,45.0220193 104.07,44.87 C103.818177,44.69621 103.515424,44.6117209 103.21,44.63 C102.89591,44.6167567 102.587406,44.7160456 102.34,44.91 C102.120807,45.0499753 101.985799,45.2899905 101.98,45.55 L100.98,45.55 C100.974101,45.0583994 101.20948,44.5951135 101.61,44.31 C102.068506,43.9784894 102.624572,43.8095579 103.19,43.83 C103.754764,43.7901026 104.316092,43.9454386 104.78,44.27 C105.164993,44.5667907 105.378367,45.0347172 105.35,45.52 C105.353615,45.7786175 105.272874,46.0313722 105.12,46.24 C104.944185,46.4671539 104.713678,46.6460545 104.45,46.76 C105.061332,46.9158676 105.479045,47.4797793 105.45,48.11 C105.466419,48.6098893 105.234244,49.0854739 104.83,49.38 C103.82139,50.0141271 102.53861,50.0141271 101.53,49.38 C101.103389,49.0742432 100.859129,48.5744511 100.88,48.05 L101.88,48.05 C101.883113,48.3399819 102.024251,48.6111164 102.26,48.78 C102.82424,49.1518682 103.55576,49.1518682 104.12,48.78 C104.34592,48.6286737 104.478136,48.3717963 104.47,48.1 C104.493394,47.8333174 104.385136,47.5720058 104.18,47.4 C103.904527,47.2404855 103.587516,47.167329 103.27,47.19 L102.27,47.19 L102.27,46.35 L103.35,46.35 C104,46.34 104.38,46.06 104.38,45.52 Z" id="Shape" fill="#404040"></path>
            <polygon id="Shape" fill="#404040" points="108.58 47.27 107.86 47.27 107.86 49.74 106.86 49.74 106.86 43.93 107.86 43.93 107.86 46.39 108.51 46.39 110.51 43.93 111.71 43.93 109.41 46.72 111.91 49.72 110.64 49.72"></polygon>
            <path d="M114.61,48.29 L115.97,43.93 L117,43.93 L114.69,50.62 C114.33,51.62 113.76,52.07 112.97,52.07 L112.78,52.07 L112.41,52 L112.41,51.2 L112.68,51.2 C112.959063,51.2167662 113.236097,51.1431243 113.47,50.99 C113.694594,50.7954888 113.854974,50.5374857 113.93,50.25 L114.15,49.66 L112.08,43.91 L113.16,43.91 L114.61,48.29 Z" id="Shape" fill="#404040"></path>
            <path d="M122.46,43.93 L122.46,49.74 L121.46,49.74 L121.46,44.74 L119.46,44.74 L119.35,46.92 C119.346162,47.6629811 119.171673,48.3951478 118.84,49.06 C118.560088,49.4920594 118.074551,49.7462076 117.56,49.73 L117.16,49.73 L117.16,48.86 L117.44,48.86 C117.762195,48.8328141 118.037357,48.6166151 118.14,48.31 C118.323192,47.7037169 118.414209,47.073341 118.41,46.44 L118.51,43.95 L122.46,43.93 Z" id="Shape" fill="#404040"></path>
            <path d="M125.14,45.93 L126.65,45.93 C127.21618,45.9061182 127.771385,46.0911867 128.21,46.45 C128.602264,46.7942325 128.815857,47.2987528 128.79,47.82 C128.809346,48.3479292 128.59319,48.857176 128.2,49.21 C127.756509,49.5821233 127.188067,49.7716042 126.61,49.74 L124.15,49.74 L124.15,43.93 L125.15,43.93 L125.14,45.93 Z M125.14,46.74 L125.14,48.93 L126.62,48.93 C126.933435,48.9485762 127.241818,48.8445867 127.48,48.64 C127.692728,48.438048 127.806063,48.1528819 127.79,47.86 C127.801879,47.5638039 127.693709,47.2753504 127.49,47.06 C127.262604,46.847617 126.961068,46.7327462 126.65,46.74 L125.14,46.74 Z" id="Shape" fill="#404040"></path>
            <polygon id="Shape" fill="#404040" points="134 44.74 132 44.74 132 49.74 131 49.74 131 44.74 129.09 44.74 129.09 43.93 134 43.93"></polygon>
            <path d="M136.91,48.29 L138.26,43.93 L139.32,43.93 L137,50.62 C136.63,51.62 136.06,52.07 135.27,52.07 L135.08,52.07 L134.71,52 L134.71,51.2 L134.98,51.2 C135.259063,51.2167662 135.536097,51.1431243 135.77,50.99 C135.997614,50.7980845 136.158638,50.5390454 136.23,50.25 L136.45,49.66 L134.38,43.91 L135.47,43.91 L136.91,48.29 Z" id="Shape" fill="#404040"></path>
            <path d="M145.12,46.9 C145.157856,47.6610419 144.943428,48.4132961 144.51,49.04 C144.13291,49.5669407 143.517634,49.8708268 142.87,49.85 C142.242605,49.8788624 141.633478,49.6344822 141.2,49.18 L141.2,51.98 L140.2,51.98 L140.2,43.93 L141.11,43.93 L141.11,44.57 C141.514949,44.0619771 142.141425,43.7823003 142.79,43.82 C143.438747,43.7983509 144.057651,44.0928898 144.45,44.61 C144.892806,45.2548702 145.107501,46.029181 145.06,46.81 L145.12,46.9 Z M144.12,46.79 C144.148753,46.2400298 144.005446,45.6947643 143.71,45.23 C143.441542,44.8662246 143.011922,44.6570183 142.56,44.67 C141.988558,44.6450841 141.455864,44.9584333 141.2,45.47 L141.2,48.24 C141.461223,48.7513545 141.99628,49.0637966 142.57,49.04 C143.018316,49.0510565 143.442443,48.8371162 143.7,48.47 C144.013366,47.9681777 144.160348,47.3802507 144.12,46.79 Z" id="Shape" fill="#404040"></path>
            <path d="M146.12,46.78 C146.110974,46.2514181 146.223896,45.7278675 146.45,45.25 C146.657376,44.8152733 146.983188,44.4478687 147.39,44.19 C147.800414,43.9433184 148.27118,43.8152424 148.75,43.82 C149.480262,43.7933209 150.184315,44.0940101 150.67,44.64 C151.183529,45.2508336 151.447782,46.0328787 151.41,46.83 L151.41,46.9 C151.418928,47.4253592 151.305972,47.9456389 151.08,48.42 C150.882516,48.8554758 150.558438,49.2213692 150.15,49.47 C149.735713,49.72582 149.256845,49.8576821 148.77,49.85 C148.040521,49.8724953 147.338166,49.5725314 146.85,49.03 C146.341588,48.4207626 146.080993,47.6425475 146.12,46.85 L146.12,46.78 Z M147.12,46.9 C147.094564,47.4507264 147.249004,47.9947768 147.56,48.45 C147.842068,48.833322 148.294283,49.0538234 148.77,49.04 C149.244821,49.0516971 149.694465,48.8268752 149.97,48.44 C150.294098,47.9496033 150.448644,47.3665452 150.41,46.78 C150.435492,46.2277913 150.277242,45.6827053 149.96,45.23 C149.677932,44.846678 149.225717,44.6261766 148.75,44.64 C148.285081,44.6268823 147.8436,44.8438815 147.57,45.22 C147.239495,45.7153496 147.081347,46.3057688 147.12,46.9 Z" id="Shape" fill="#404040"></path>
            <path d="M156.41,43.93 L157.41,43.93 L157.41,49.74 L156.41,49.74 L156.41,45.5 L153.73,49.74 L152.73,49.74 L152.73,43.93 L153.73,43.93 L153.73,48.17 L156.41,43.93 Z M156.68,41.81 C156.692586,42.2072547 156.532032,42.5903948 156.24,42.86 C155.552093,43.3851153 154.597907,43.3851153 153.91,42.86 C153.62099,42.6085054 153.456557,42.2430987 153.46,41.86 L154.28,41.86 C154.265348,42.0754648 154.337346,42.2878593 154.48,42.45 C154.64241,42.5998672 154.85958,42.6758764 155.08,42.66 C155.293975,42.6726678 155.503734,42.5967207 155.66,42.45 C155.814071,42.2936772 155.894108,42.0790334 155.88,41.86 L156.68,41.81 Z" id="Shape" fill="#404040"></path>
            <path d="M159,51.3 L158.44,50.91 C158.755821,50.4902891 158.937113,49.9847633 158.96,49.46 L158.96,48.56 L159.960007,48.56 L159.96,49.34 C159.960938,49.7188037 159.871822,50.0924052 159.7,50.43 C159.532701,50.767448 159.293816,51.0643474 159,51.3 Z" id="Shape" fill="#404040"></path>
            <polygon id="Shape" fill="#404040" points="11.07 57.74 9.12 57.74 9.12 62.74 8.12 62.74 8.12 57.74 6.21 57.74 6.21 56.93 11.07 56.93"></polygon>
            <path d="M14,61.29 L15.36,56.93 L16.42,56.93 L14.07,63.62 C13.71,64.62 13.14,65.07 12.35,65.07 L12.16,65.07 L11.79,65 L11.79,64.2 L12.06,64.2 C12.3390634,64.2167662 12.6160974,64.1431243 12.85,63.99 C13.0745937,63.7954888 13.234974,63.5374857 13.31,63.25 L13.53,62.66 L11.46,56.91 L12.54,56.91 L14,61.29 Z" id="Shape" fill="#404040"></path>
            <path d="M22.21,59.9 C22.2426998,60.6604428 22.0287312,61.4110866 21.6,62.04 C21.2160562,62.5588077 20.6053412,62.8604413 19.96,62.85 C19.332605,62.8788624 18.7234783,62.6344822 18.29,62.18 L18.29,64.98 L17.29,64.98 L17.29,56.93 L18.19,56.93 L18.19,57.57 C18.6031999,57.0670333 19.2298111,56.7889514 19.88,56.82 C20.5287465,56.7983509 21.147651,57.0928898 21.54,57.61 C21.978655,58.2567973 22.1929506,59.0296666 22.15,59.81 L22.21,59.9 Z M21.21,59.79 C21.2420408,59.2414323 21.094611,58.697346 20.79,58.24 C20.5283161,57.8658985 20.0963855,57.6480552 19.64,57.66 C19.0698407,57.6409238 18.5414783,57.9579412 18.29,58.47 L18.29,61.24 C18.5496835,61.7479827 19.0798347,62.0598363 19.65,62.04 C20.101819,62.054453 20.5304709,61.840127 20.79,61.47 C21.1033659,60.9681777 21.2503477,60.3802507 21.21,59.79 Z" id="Shape" fill="#404040"></path>
            <polygon id="Shape" fill="#404040" points="27.23 56.93 28.23 56.93 28.23 62.74 27.23 62.74 27.23 58.5 24.55 62.74 23.55 62.74 23.55 56.93 24.55 56.93 24.55 61.17"></polygon>
            <path d="M33,58.52 C33.0105938,58.2653844 32.8945274,58.0220193 32.69,57.87 C32.4412581,57.6976623 32.1421436,57.6132065 31.84,57.63 C31.5228721,57.6169841 31.2112979,57.7161214 30.96,57.91 C30.7432744,58.0510342 30.6118068,58.2914321 30.61,58.55 L29.61,58.55 C29.6041009,58.0583994 29.83948,57.5951135 30.24,57.31 C30.7022671,56.9784324 31.2614823,56.8096127 31.83,56.83 C32.3944374,56.7933241 32.9547165,56.9483699 33.42,57.27 C33.8049927,57.5667907 34.0183672,58.0347172 33.99,58.52 C33.99,58.7796443 33.9057866,59.0322846 33.75,59.24 C33.5741849,59.4671539 33.3436784,59.6460545 33.08,59.76 C33.6936406,59.912419 34.1130161,60.478576 34.08,61.11 C34.098726,61.6080627 33.8704704,62.0832836 33.47,62.38 C32.9841989,62.7076926 32.4052682,62.8690914 31.82,62.84 C31.227702,62.8647578 30.6439102,62.6924337 30.16,62.35 C29.7375824,62.0407162 29.4944887,61.5433091 29.51,61.02 L30.51,61.02 C30.5091648,61.3085802 30.6467636,61.5800588 30.88,61.75 C31.1532411,61.9553096 31.4884031,62.0611503 31.83,62.05 C32.1569851,62.0674956 32.4805404,61.9760561 32.75,61.79 C32.9510527,61.617125 33.0667041,61.3651564 33.0667041,61.1 C33.0667041,60.8348436 32.9510527,60.582875 32.75,60.41 C32.474991,60.2493128 32.1576126,60.1760716 31.84,60.2 L30.84,60.2 L30.84,59.36 L32,59.36 C32.67,59.34 33,59.06 33,58.52 Z" id="Shape" fill="#404040"></path>
            <polygon id="Shape" fill="#404040" points="38.75 61.42 40.75 56.93 42 56.93 42 62.74 41 62.74 41 58.51 39.12 62.74 38.44 62.74 36.52 58.42 36.52 62.74 35.52 62.74 35.52 56.93 36.81 56.93"></polygon>
            <path d="M43.3,59.78 C43.2909735,59.2514181 43.4038962,58.7278675 43.63,58.25 C43.8373764,57.8152733 44.163188,57.4478687 44.57,57.19 C44.983523,56.942017 45.4578591,56.8139116 45.94,56.82 C46.6694795,56.7975047 47.371834,57.0974686 47.86,57.64 C48.3656372,58.2546884 48.6256967,59.0348669 48.59,59.83 L48.59,59.9 C48.5989279,60.4253592 48.4859725,60.9456389 48.26,61.42 C48.0625155,61.8554758 47.7384385,62.2213692 47.33,62.47 C46.9157131,62.72582 46.4368454,62.8576821 45.95,62.85 C45.2197377,62.8766791 44.515685,62.5759899 44.03,62.03 C43.5215878,61.4207626 43.2609929,60.6425475 43.3,59.85 L43.3,59.78 Z M44.3,59.9 C44.2729758,60.4523896 44.4313678,60.9979623 44.75,61.45 C45.0356669,61.8240035 45.4793789,62.0434303 45.95,62.0434303 C46.4206211,62.0434303 46.8643331,61.8240035 47.15,61.45 C47.4776178,60.9608215 47.6357014,60.3776687 47.6,59.79 C47.6225823,59.2366444 47.4607837,58.6914534 47.14,58.24 C46.8611007,57.8582749 46.4125983,57.6377612 45.94,57.65 C45.4719653,57.6352975 45.0267713,57.8522828 44.75,58.23 C44.4216213,58.7225732 44.2635685,59.3091246 44.3,59.9 Z" id="Shape" fill="#404040"></path>
            <polygon id="Shape" fill="#404040" points="53.18 61.42 55.18 56.93 56.42 56.93 56.42 62.74 55.42 62.74 55.42 58.51 53.54 62.74 52.86 62.74 50.94 58.42 50.94 62.74 49.94 62.74 49.94 56.93 51.23 56.93"></polygon>
            <path d="M58,64.3 L57.44,63.91 C57.7558213,63.4902891 57.9371133,62.9847633 57.96,62.46 L57.96,61.62 L58.96,61.62 L58.96,62.39 C58.9559682,62.7693836 58.8635201,63.1425998 58.69,63.48 C58.5196832,63.7984488 58.2846526,64.0777605 58,64.3 Z" id="Shape" fill="#404040"></path>
            <path d="M62.61,59.78 C62.5992124,59.2501352 62.7158144,58.7254264 62.95,58.25 C63.1504106,57.8138028 63.473583,57.4454558 63.88,57.19 C64.2941377,56.943466 64.7680575,56.815473 65.25,56.82 C65.9794795,56.7975047 66.681834,57.0974686 67.17,57.64 C67.6799328,58.2523049 67.9405633,59.0341964 67.9,59.83 L67.9,59.9 C67.9075144,60.4241416 67.7982015,60.9433776 67.58,61.42 C67.3765479,61.8515745 67.0538451,62.2159164 66.65,62.47 C66.2319418,62.7256046 65.7499511,62.8573719 65.26,62.85 C64.5321236,62.8793815 63.8300155,62.5779529 63.35,62.03 C62.8379904,61.4222337 62.5737734,60.6438648 62.61,59.85 L62.61,59.78 Z M63.61,59.9 C63.5829758,60.4523896 63.7413678,60.9979623 64.06,61.45 C64.3388993,61.8317251 64.7874017,62.0522388 65.26,62.04 C65.7360251,62.0571667 66.1881183,61.8311201 66.46,61.44 C66.7876178,60.9508215 66.9457014,60.3676687 66.91,59.78 C66.9354924,59.2277913 66.7772416,58.6827053 66.46,58.23 C66.1757058,57.8493576 65.7249771,57.6295808 65.25,57.64 C64.7823386,57.6270321 64.3379077,57.8436455 64.06,58.22 C63.729495,58.7153496 63.571347,59.3057688 63.61,59.9 Z" id="Shape" fill="#404040"></path>
            <polygon id="Shape" fill="#404040" points="73.35 57.74 71.4 57.74 71.4 62.74 70.4 62.74 70.4 57.74 68.49 57.74 68.49 56.93 73.35 56.93"></polygon>
            <path d="M73.81,61.93 L74.16,61.51 C74.5919969,60.8354652 74.8210855,60.0510102 74.82,59.25 L74.91,56.93 L78.65,56.93 L78.65,61.93 L79.4,61.93 L79.4,64.45 L78.4,64.45 L78.4,62.74 L74.34,62.74 L74.34,64.45 L73.34,64.45 L73.34,61.93 L73.81,61.93 Z M74.99,61.93 L77.66,61.93 L77.66,57.85 L75.87,57.85 L75.81,59.23 C75.817548,60.1909609 75.5352709,61.1318848 75,61.93 L74.99,61.93 Z" id="Shape" fill="#404040"></path>
            <path d="M81.59,58.93 L83.1,58.93 C83.6656543,58.9098085 84.2195915,59.0944542 84.66,59.45 C85.0313878,59.8131147 85.2407409,60.3105954 85.2407409,60.83 C85.2407409,61.3494046 85.0313878,61.8468853 84.66,62.21 C84.2180313,62.5848366 83.6484769,62.7746881 83.07,62.74 L80.61,62.74 L80.61,56.93 L81.61,56.93 L81.59,58.93 Z M81.59,59.74 L81.59,61.93 L83.06,61.93 C83.3765407,61.9490985 83.6882266,61.8452032 83.93,61.64 C84.1390557,61.4362512 84.2486427,61.151325 84.23,60.86 C84.2402124,60.5658985 84.136299,60.2792411 83.94,60.06 C83.7126035,59.847617 83.4110677,59.7327462 83.1,59.74 L81.59,59.74 Z M87.31,62.74 L86.31,62.74 L86.31,56.93 L87.31,56.93 L87.31,62.74 Z" id="Shape" fill="#404040"></path>
            <polygon id="Shape" fill="#404040" points="91 59.05 92.29 56.93 93.45 56.93 91.55 59.8 93.55 62.74 92.4 62.74 91 60.62 89.65 62.79 88.5 62.79 90.5 59.85 88.6 56.98 89.75 56.98"></polygon>
            <path d="M94.13,59.78 C94.1192124,59.2501352 94.2358144,58.7254264 94.47,58.25 C94.6704106,57.8138028 94.993583,57.4454558 95.4,57.19 C95.8141377,56.943466 96.2880575,56.815473 96.77,56.82 C97.4994795,56.7975047 98.201834,57.0974686 98.69,57.64 C99.1999328,58.2523049 99.4605633,59.0341964 99.42,59.83 L99.42,59.9 C99.4275144,60.4241416 99.3182015,60.9433776 99.1,61.42 C98.8965479,61.8515745 98.5738451,62.2159164 98.17,62.47 C97.751507,62.7245967 97.2698126,62.8562829 96.78,62.85 C96.0497377,62.8766791 95.345685,62.5759899 94.86,62.03 C94.355871,61.4183793 94.0958476,60.6418709 94.13,59.85 L94.13,59.78 Z M95.13,59.9 C95.1029758,60.4523896 95.2613678,60.9979623 95.58,61.45 C95.8588993,61.8317251 96.3074017,62.0522388 96.78,62.04 C97.2548212,62.0516971 97.7044649,61.8268752 97.98,61.44 C98.3076178,60.9508215 98.4657014,60.3676687 98.43,59.78 C98.4572767,59.22607 98.2950314,58.679374 97.97,58.23 C97.6840677,57.8598377 97.2427364,57.6430791 96.775,57.6430791 C96.3072636,57.6430791 95.8659323,57.8598377 95.58,58.23 C95.2516213,58.7225732 95.0935685,59.3091246 95.13,59.9 Z" id="Shape" fill="#404040"></path>
            <polygon id="Shape" fill="#404040" points="104 61.42 106 56.93 107.24 56.93 107.24 62.74 106.24 62.74 106.24 58.51 104.36 62.74 103.67 62.74 101.75 58.42 101.75 62.74 100.75 62.74 100.75 56.93 102.04 56.93"></polygon>
            <polygon id="Shape" fill="#404040" points="115.31 56.93 116.31 56.93 116.31 62.74 115.31 62.74 115.31 58.5 112.63 62.74 111.63 62.74 111.63 56.93 112.63 56.93 112.63 61.17"></polygon>
            <path d="M123,62.04 C123.337948,62.0457841 123.667162,61.9325062 123.93,61.72 C124.184154,61.5239795 124.3439,61.2299015 124.37,60.91 L125.31,60.91 C125.287931,61.2522714 125.170119,61.5814521 124.97,61.86 C124.749643,62.1657457 124.457825,62.4129326 124.12,62.58 C123.774126,62.7596008 123.389718,62.8522706 123,62.85 C122.284365,62.8780493 121.592801,62.5889827 121.11,62.06 C120.61814,61.4471515 120.368977,60.6747461 120.41,59.89 L120.41,59.72 C120.404349,59.2003075 120.510052,58.6854304 120.72,58.21 C120.916622,57.7964054 121.22933,57.4489516 121.62,57.21 C122.034213,56.9550498 122.513801,56.8264646 123,56.84 C123.59574,56.8212667 124.175837,57.0325366 124.62,57.43 C125.051136,57.8188368 125.301103,58.3694886 125.31,58.95 L124.37,58.95 C124.353387,58.5957971 124.199092,58.2620891 123.94,58.02 C123.693708,57.7649544 123.354553,57.6206332 123,57.62 C122.541956,57.5958303 122.101124,57.7975669 121.82,58.16 C121.519216,58.6298516 121.375631,59.1831783 121.41,59.74 L121.41,59.93 C121.373539,60.4775957 121.517556,61.0220503 121.82,61.48 C122.096822,61.849953 122.538355,62.0594942 123,62.04 Z" id="Shape" fill="#404040"></path>
            <polygon id="Shape" fill="#404040" points="131.13 62.74 130.13 62.74 130.13 57.74 127.45 57.74 127.45 62.74 126.45 62.74 126.45 56.93 131.12 56.93"></polygon>
            <path d="M132.46,59.78 C132.454093,59.2506321 132.570446,58.7270434 132.8,58.25 C133.000411,57.8138028 133.323583,57.4454558 133.73,57.19 C134.144138,56.943466 134.618058,56.815473 135.1,56.82 C135.819415,56.7983253 136.51276,57.09026 137,57.62 C137.509933,58.2323049 137.770563,59.0141964 137.73,59.81 L137.73,59.88 C137.742414,60.4046048 137.632872,60.9249293 137.41,61.4 C137.206548,61.8315745 136.883845,62.1959164 136.48,62.45 C136.061942,62.7056046 135.579951,62.8373719 135.09,62.83 C134.362392,62.8579321 133.660882,62.55676 133.18,62.01 C132.66799,61.4022337 132.403773,60.6238648 132.44,59.83 L132.46,59.78 Z M133.46,59.9 C133.432976,60.4523896 133.591368,60.9979623 133.91,61.45 C134.188899,61.8317251 134.637402,62.0522388 135.11,62.04 C135.586025,62.0571667 136.038118,61.8311201 136.31,61.44 C136.637618,60.9508215 136.795701,60.3676687 136.76,59.78 C136.785492,59.2277913 136.627242,58.6827053 136.31,58.23 C136.025706,57.8493576 135.574977,57.6295808 135.1,57.64 C134.632339,57.6270321 134.187908,57.8436455 133.91,58.22 C133.579495,58.7153496 133.421347,59.3057688 133.46,59.9 Z" id="Shape" fill="#404040"></path>
            <path d="M143.91,59.9 C143.947856,60.6610419 143.733428,61.4132961 143.3,62.04 C142.92291,62.5669407 142.307634,62.8708268 141.66,62.85 C141.032605,62.8788624 140.423478,62.6344822 139.99,62.18 L139.99,64.98 L138.99,64.98 L138.99,56.93 L139.9,56.93 L139.95,57.57 C140.354949,57.0619771 140.981425,56.7823003 141.63,56.82 C142.278747,56.7983509 142.897651,57.0928898 143.29,57.61 C143.732806,58.2548702 143.947501,59.029181 143.9,59.81 L143.91,59.9 Z M142.91,59.79 C142.942041,59.2414323 142.794611,58.697346 142.49,58.24 C142.22711,57.8672937 141.79598,57.6498543 141.34,57.66 C140.767587,57.6420284 140.236846,57.9581313 139.98,58.47 L139.98,61.24 C140.2431,61.7495765 140.776906,62.0612883 141.35,62.04 C141.798316,62.0510565 142.222443,61.8371162 142.48,61.47 C142.804951,60.9725238 142.959377,60.3828955 142.92,59.79 L142.91,59.79 Z" id="Shape" fill="#404040"></path>
            <polygon id="Shape" fill="#404040" points="149.07 57.74 147.12 57.74 147.12 62.74 146.12 62.74 146.12 57.74 144.21 57.74 144.21 56.93 149.06 56.93"></polygon>
            <path d="M149.56,59.78 C149.550974,59.2514181 149.663896,58.7278675 149.89,58.25 C150.097376,57.8152733 150.423188,57.4478687 150.83,57.19 C151.240414,56.9433184 151.71118,56.8152424 152.19,56.82 C152.92,56.7947292 153.623479,57.0951733 154.11,57.64 C154.623529,58.2508336 154.887782,59.0328787 154.85,59.83 L154.85,59.9 C154.858928,60.4253592 154.745972,60.9456389 154.52,61.42 C154.322516,61.8554758 153.998438,62.2213692 153.59,62.47 C153.17261,62.7271473 152.690161,62.8590399 152.2,62.85 C151.472925,62.8750764 150.772585,62.5744067 150.29,62.03 C149.781588,61.4207626 149.520993,60.6425475 149.56,59.85 L149.56,59.78 Z M150.56,59.9 C150.530063,60.4512381 150.684906,60.9967064 151,61.45 C151.287719,61.8242118 151.732965,62.0435147 152.205,62.0435147 C152.677035,62.0435147 153.122281,61.8242118 153.41,61.45 C153.730109,60.9578233 153.884297,60.3761156 153.85,59.79 C153.875492,59.2377913 153.717242,58.6927053 153.4,58.24 C153.116808,57.8580281 152.665346,57.6378933 152.19,57.65 C151.725081,57.6368823 151.2836,57.8538815 151.01,58.23 C150.681621,58.7225732 150.523568,59.3091246 150.56,59.9 Z" id="Shape" fill="#404040"></path>
            <polygon id="Shape" fill="#404040" points="159.44 61.42 161.44 56.93 162.68 56.93 162.68 62.74 161.68 62.74 161.68 58.51 159.8 62.74 159.12 62.74 157.2 58.42 157.2 62.74 156.2 62.74 156.2 56.93 157.49 56.93"></polygon>
        </g>
    </g>
</svg>